<svg xmlns="http://www.w3.org/2000/svg" xmlns:xlink="http://www.w3.org/1999/xlink" width="90.368" height="68.694" viewBox="0 0 62.02 40.346">
    <g id="Group_1867" data-name="Group 1867" transform="translate(-785.98 -449)">
        <g id="Group_1" data-name="Group 1" transform="translate(745 449)">
            <path id="Path_2" data-name="Path 2" d="M442.366,233.66c-.194,4.719-.391,9.866-.521,13.348,8.783,1.658,18.133,3.411,19.068,3.544a.371.371,0,0,0,.043,0c2.564.43,3.177-.619,3.683-4.462.977-7.413,4.686-11.119,7.287-13.719s4.44-3.763,5.163-3.954.241-1.436-1.6-1.436a43.767,43.767,0,0,0-4.478.121c-1.269.079-2.734.21-4.4.426a102.4,102.4,0,0,0-11.141,2.036,90.988,90.988,0,0,0-13.1,4.094" transform="translate(-380.244 -213.4)" fill="#fff"/>
            <path id="Path_3" data-name="Path 3" d="M424.2,217.5c.138-3.413.28-6.711.391-8.8a18.605,18.605,0,0,1,.561-3.938,15.291,15.291,0,0,1,3.7,1.074c-.017.3-.033.615-.049.947-.1,2.113-.141,5.239-.149,8.6q.623-.267,1.307-.544c.134-3.214.265-6.172.372-8.191l.024-.262c4.48,1.665,10.187,3.974,10.2,3.759.007-.146-5.44-2.843-10.091-4.868a14.065,14.065,0,0,1,.543-3.362c1.345-.3,18.5,6.881,18.517,6.47.015-.292-18.178-9.1-19.8-8.5a2.539,2.539,0,0,0-.373,1.107,29.627,29.627,0,0,0-.421,3.625c-2.43-1.015-4.4-1.712-4.848-1.545a2.113,2.113,0,0,0-.311.921,34.456,34.456,0,0,0-.454,4.814c-.1,2.185-.131,5.674-.125,9.22q.453-.243,1.006-.533" transform="translate(-367.811 -195.329)" fill="#fff"/>
            <path id="Path_4" data-name="Path 4" d="M425.381,250.763c-.144,3.591-.281,7.22-.371,9.623l4.947.935c-.044-3.306-.094-8.156-.089-12.69-1.878.8-3.349,1.537-4.487,2.132" transform="translate(-369.022 -227.839)" fill="#fff"/>
            <path id="Path_5" data-name="Path 5" d="M441.58,292.29l13.592,4.027h8.194l-21.751-4.981c-.013.347-.025.666-.035.954" transform="translate(-380.067 -256.305)" fill="#fff"/>
            <path id="Path_6" data-name="Path 6" d="M424.173,290.341l-11.953-3.579c-.031.838-.048,1.32-.048,1.32l-.452-.226s-.008-.455-.021-1.25l-5.069-1.518c-.014.389-.022.6-.022.6l-.376-.188s0-.191-.009-.538l-8.664-2.595,17.9,7.971Z" transform="translate(-350.724 -250.329)" fill="#fff"/>
            <path id="Path_7" data-name="Path 7" d="M406.944,283.381l-8.279-1.9,8.288,2.455c0-.168-.005-.355-.009-.56" transform="translate(-351.462 -249.739)" fill="#fff"/>
            <path id="Path_8" data-name="Path 8" d="M424.812,288.069l5.046,1.495c0-.28-.009-.591-.014-.929l-5.011-1.148c-.008.213-.015.407-.021.582" transform="translate(-368.89 -253.739)" fill="#fff"/>
            <path id="Path_9" data-name="Path 9" d="M402.316,263.474a2.624,2.624,0,0,1-.145.861l6.57,1.244c-.031-2.251-.07-5.617-.081-9.009-.341.183-.641.345-.9.481a46.926,46.926,0,0,0-6.371,4.419,2.62,2.62,0,0,1,.929,2" transform="translate(-353.276 -233.131)" fill="#fff"/>
        </g>
    </g>
</svg>
