<?xml version="1.0" standalone="no"?>
<!DOCTYPE svg PUBLIC "-//W3C//DTD SVG 20010904//EN"
 "http://www.w3.org/TR/2001/REC-SVG-20010904/DTD/svg10.dtd">
<svg version="1.0" xmlns="http://www.w3.org/2000/svg"
 width="24476.000000pt" height="11114.000000pt" viewBox="0 0 24476.000000 11114.000000"
 preserveAspectRatio="xMidYMid meet">

<g transform="translate(0.000000,11114.000000) scale(0.100000,-0.100000)"
fill="#000000" stroke="none">
<path d="M159720 111130 c-2634 -63 -5210 -320 -7820 -780 -7173 -1263 -14424
-4028 -21200 -8083 -4675 -2798 -11027 -6965 -16660 -10931 -4288 -3018 -7859
-5656 -14230 -10511 -10099 -7696 -13911 -10388 -17955 -12680 -1452 -823
-1499 -852 -1589 -979 -120 -168 -199 -424 -200 -641 -1 -106 0 -113 32 -175
242 -471 621 -673 1109 -590 469 80 1477 424 2442 832 893 378 3134 1506 4471
2251 3752 2090 7487 4582 15003 10009 1098 793 1720 1245 4357 3163 10116
7358 11977 8683 15426 10982 890 594 1366 908 1924 1271 7070 4600 12554 7362
18630 9382 4775 1588 8888 2458 13700 2899 613 56 902 79 1150 91 997 46 3832
46 4810 0 393 -19 2054 -190 2078 -215 8 -7 -215 -452 -451 -900 -646 -1228
-1810 -3549 -2927 -5838 l-405 -829 -65 6 c-36 3 -128 12 -205 20 -842 88
-3005 72 -4715 -34 -2803 -174 -6488 -793 -10105 -1696 -3205 -801 -6126
-1734 -9870 -3154 -3506 -1330 -5795 -2327 -8865 -3862 -7761 -3880 -17930
-9997 -28825 -17338 -4704 -3170 -5562 -3703 -7647 -4751 -369 -185 -518 -264
-518 -276 0 -9 18 -109 40 -222 22 -113 71 -375 109 -581 79 -424 111 -558
137 -577 30 -22 238 -14 709 28 796 69 1182 137 1654 291 597 194 1233 478
2541 1134 2217 1111 3440 1830 8980 5282 5039 3140 7081 4393 9010 5529 8595
5063 17065 9091 25535 12146 6280 2265 11366 3512 16215 3976 661 64 1518 99
2895 121 358 5 710 12 783 15 72 3 132 1 132 -3 0 -5 -50 -100 -111 -213 -226
-416 -598 -1143 -1574 -3079 -351 -696 -640 -1267 -642 -1269 -1 -2 -308 -10
-681 -17 -1908 -36 -2062 -42 -3277 -139 -2004 -161 -3888 -417 -5980 -816
-6439 -1227 -13772 -3680 -21495 -7192 -2373 -1079 -6106 -2909 -8790 -4310
-2635 -1375 -7466 -4042 -11965 -6607 -2403 -1369 -3314 -1849 -4640 -2442
-327 -146 -510 -238 -600 -302 -67 -48 -166 -150 -214 -219 -85 -124 -147
-300 -158 -446 -12 -179 82 -699 139 -768 26 -32 197 -84 373 -114 158 -27
473 -36 656 -19 418 38 943 157 1764 400 1197 355 2071 722 5795 2435 2524
1161 5037 2309 6265 2862 8333 3752 14528 6189 20840 8198 6299 2006 11656
3156 16475 3539 925 74 2500 145 2965 134 131 -3 140 -4 137 -22 -2 -11 -69
-191 -149 -400 -392 -1029 -501 -1330 -739 -2041 -497 -1481 -913 -2941 -1258
-4415 -192 -819 -369 -1625 -382 -1732 l-6 -55 59 -12 c72 -14 300 -37 448
-46 992 -58 2092 -198 3050 -390 469 -94 460 -93 474 -67 21 38 152 407 431
1207 939 2695 1810 4974 2375 6210 91 201 412 845 421 845 7 0 184 -153 313
-270 156 -141 626 -640 881 -935 143 -165 252 -314 245 -333 -3 -9 -73 -129
-154 -267 -404 -681 -1218 -2133 -1848 -3295 -416 -766 -1305 -2464 -1617
-3088 -106 -212 -134 -277 -127 -290 17 -32 110 -67 556 -212 734 -238 1071
-357 1590 -562 349 -138 680 -261 730 -272 28 -6 32 -3 71 61 23 38 244 403
491 813 1518 2515 2674 4356 4013 6390 1995 3032 4141 6021 6081 8470 1673
2111 3387 4000 5114 5635 1132 1071 2168 1900 3266 2613 387 251 502 317 839
477 118 56 247 121 285 145 293 179 492 432 599 762 55 170 61 218 60 488 0
256 -10 361 -70 750 -185 1202 -601 2275 -1277 3290 -1043 1566 -2518 2910
-4402 4010 -1871 1093 -4069 1902 -6491 2389 -2026 408 -4250 660 -6549 741
-390 14 -1796 20 -2225 10z m11784 -5678 c222 -112 635 -347 896 -511 1469
-923 2468 -2013 3067 -3349 182 -407 372 -973 429 -1277 23 -123 23 -269 0
-315 -30 -60 -414 -431 -791 -765 -818 -726 -1317 -1196 -2090 -1969 -746
-746 -1187 -1212 -1964 -2076 -524 -583 -645 -710 -676 -710 -38 0 -154 91
-322 252 -460 443 -848 754 -1373 1103 -657 437 -1331 788 -2160 1127 -215 87
-377 168 -411 204 l-21 23 42 78 c136 248 1680 2799 3086 5100 1292 2113 1891
3078 1951 3141 42 44 42 45 99 40 47 -4 90 -21 238 -96z m-6682 -10607 c204
-35 910 -290 1417 -512 673 -294 1322 -662 1916 -1088 452 -324 655 -519 655
-630 0 -61 -72 -166 -410 -600 -1053 -1349 -2439 -3268 -3438 -4760 -325 -484
-433 -635 -456 -635 -43 0 -965 657 -2146 1529 -730 538 -1180 884 -1180 905
0 34 243 477 565 1031 705 1213 2565 4306 2807 4669 39 58 72 85 119 96 50 12
58 11 151 -5z"/>
<path d="M149385 73390 c-3069 -127 -6326 -769 -10495 -2067 -2038 -634 -4084
-1360 -9290 -3293 -5112 -1899 -7705 -2802 -10600 -3695 -6349 -1957 -12048
-3090 -17760 -3529 -1817 -140 -3013 -179 -5560 -179 -1386 -1 -2123 16 -3205
73 -7571 401 -15350 2061 -23275 4970 -1217 446 -2472 937 -3815 1490 -903
372 -1313 536 -1322 527 -55 -55 4412 -2308 6432 -3245 2711 -1256 5591 -2447
8270 -3420 7563 -2747 14842 -4339 22275 -4872 1904 -136 4589 -208 6771 -181
1164 15 1558 28 2529 82 5758 319 10907 1075 17850 2620 1278 285 2880 658
5375 1254 3843 917 4968 1181 6305 1480 4935 1103 8583 1651 11935 1795 950
41 2131 41 3045 0 2384 -106 4690 -475 6840 -1095 3696 -1065 7186 -2936
10650 -5709 789 -631 1616 -1342 2140 -1837 857 -811 2402 -2350 3081 -3070
170 -179 319 -334 333 -342 88 -58 20 66 -719 1298 -2730 4556 -5329 8192
-8030 11235 -943 1063 -2586 2706 -3525 3526 -1959 1711 -3716 2917 -5690
3908 -2208 1109 -4277 1760 -6610 2080 -607 83 -1203 139 -2015 187 -226 13
-1651 20 -1920 9z"/>
<path d="M151825 60553 c-27 -2 -266 -17 -530 -33 -587 -37 -817 -53 -1185
-86 -1371 -119 -3033 -337 -4505 -589 -2708 -465 -5072 -976 -10340 -2235
-6339 -1515 -8033 -1894 -10890 -2435 -4636 -878 -9005 -1456 -12660 -1675
-524 -32 -1131 -80 -1214 -96 -40 -8 -47 -20 -17 -28 94 -24 1284 -126 1981
-170 1096 -70 1917 -91 3320 -83 970 6 1303 12 2100 37 1344 43 2562 121 4215
271 2469 222 4614 485 8455 1034 1147 164 1724 248 3840 559 6694 986 9647
1356 12915 1621 3675 297 6987 334 9910 110 4060 -312 7562 -1109 10790 -2458
1548 -647 3018 -1440 4534 -2447 1281 -851 2391 -1721 3411 -2675 371 -347
464 -416 324 -239 -271 341 -1337 1452 -2570 2679 -693 690 -927 915 -1309
1259 -4334 3909 -8750 6242 -13625 7200 -881 173 -1736 296 -2827 406 -338 34
-878 51 -2168 70 -623 9 -1838 11 -1955 3z"/>
<path d="M119905 36310 c-121 -4 -272 -13 -335 -19 -63 -6 -272 -22 -465 -36
-1953 -140 -3700 -451 -5344 -951 -3028 -922 -5301 -2337 -6849 -4262 -1305
-1623 -2079 -3590 -2306 -5862 -42 -413 -50 -618 -50 -1235 1 -786 32 -1446
90 -1890 177 -1364 571 -2664 1148 -3790 667 -1301 1581 -2412 2766 -3362 334
-267 846 -625 1230 -859 2494 -1520 5497 -2359 9405 -2629 767 -52 2217 -67
3445 -34 403 10 611 20 1050 49 3296 221 6657 774 9290 1530 250 72 1001 297
1005 302 5 5 24 12132 19 12140 -3 4 -3069 8 -6815 8 l-6809 0 0 -2605 0
-2605 3580 0 3580 0 0 -1432 0 -1433 -558 -154 c-936 -260 -1255 -340 -1732
-435 -632 -126 -1353 -216 -2155 -267 -261 -16 -1847 -23 -2406 -10 -998 24
-1400 48 -1914 117 -2694 360 -4841 1286 -6003 2589 -425 476 -833 1064 -1048
1509 -361 749 -571 1577 -650 2566 -21 254 -24 918 -6 1160 54 719 154 1265
327 1785 201 604 512 1195 909 1725 307 411 715 833 1106 1145 1133 903 2724
1542 4715 1894 665 118 1524 219 2128 251 412 21 1227 33 1962 27 1012 -9
1296 -20 1930 -78 2564 -232 5020 -841 7250 -1796 424 -182 732 -327 1385
-649 327 -162 600 -294 606 -294 18 0 23 235 30 1265 5 924 -9 4521 -18 4530
-14 15 -569 216 -898 325 -1671 558 -3737 1074 -5430 1355 -917 152 -2194 308
-2815 344 -838 49 -3676 95 -4350 71z"/>
<path d="M196810 36309 c-162 -3 -349 -11 -415 -18 -66 -6 -291 -22 -500 -36
-209 -14 -461 -32 -560 -40 -2470 -212 -4789 -844 -6207 -1692 -1377 -824
-2327 -1941 -2787 -3277 -212 -615 -324 -1341 -324 -2101 0 -527 51 -951 167
-1409 183 -718 533 -1396 1027 -1987 123 -147 472 -505 651 -666 885 -800
1892 -1367 3573 -2011 644 -247 1168 -422 1791 -601 1109 -318 2315 -593 5089
-1161 2348 -482 3349 -723 4201 -1014 673 -230 1214 -500 1559 -779 109 -88
279 -266 343 -360 70 -102 145 -262 173 -367 30 -118 37 -312 15 -440 -33
-188 -120 -403 -233 -574 -81 -123 -285 -331 -418 -425 -559 -394 -1466 -698
-2610 -875 -1464 -226 -3676 -275 -5595 -126 -2308 181 -4438 630 -6625 1397
-877 308 -1272 478 -2412 1037 -276 135 -506 246 -511 246 -6 0 -13 -19 -16
-42 -4 -24 -9 -1297 -12 -2829 l-6 -2786 43 -15 c24 -9 239 -84 476 -167 2426
-847 5380 -1480 7893 -1691 1819 -152 4262 -178 6190 -64 2992 175 5510 823
7240 1862 486 292 863 594 1335 1066 541 542 839 953 1155 1591 324 655 523
1345 585 2030 53 596 57 1278 10 1733 -54 512 -239 1134 -490 1647 -697 1424
-2103 2598 -4255 3550 -1065 471 -2236 868 -3680 1249 -1060 279 -2019 500
-4495 1037 -2043 443 -2578 573 -3390 825 -1271 396 -1978 823 -2185 1321 -59
142 -73 213 -74 378 -1 174 16 249 85 388 193 386 693 695 1468 908 1397 382
4247 517 6521 308 2343 -215 5167 -898 7405 -1791 295 -118 473 -194 832 -354
177 -79 324 -144 327 -144 3 0 6 1236 6 2748 l0 2747 -97 38 c-320 124 -1887
555 -2788 767 -1614 380 -3178 649 -4855 834 -660 73 -923 88 -2125 116 -430
10 -2027 31 -2140 28 -33 -1 -193 -5 -355 -9z"/>
<path d="M79815 35739 c-3571 -9 -5246 -25 -5287 -50 -18 -11 -23 -5584 -13
-15817 l7 -7862 3213 0 3212 0 6 2627 c4 1444 7 3259 7 4033 0 774 3 1556 7
1738 l6 332 3471 -2 3471 -3 1557 -1895 c857 -1042 2475 -3010 3595 -4373
l2038 -2478 3670 5 c2019 3 3703 9 3744 13 l75 8 -253 309 c-541 661 -1513
1837 -3471 4201 -2779 3354 -3972 4803 -3978 4831 -4 18 36 36 349 159 798
315 1721 804 2214 1175 496 373 1065 932 1378 1354 310 420 727 1234 902 1761
323 972 424 2297 275 3575 -110 930 -334 1747 -670 2436 -293 603 -639 1084
-1134 1580 -459 459 -952 822 -1553 1142 -1126 601 -2591 981 -4353 1132 -408
34 -547 40 -1290 50 -699 10 -6463 31 -7700 28 -333 -1 -1905 -5 -3495 -9z
m10500 -5018 c630 -16 796 -29 1160 -91 1109 -190 1680 -577 1950 -1325 100
-276 135 -572 135 -1145 0 -431 -17 -606 -80 -830 -241 -850 -779 -1263 -1956
-1499 -319 -64 -500 -76 -1379 -91 -652 -11 -3477 -26 -6927 -36 l-2248 -7 0
2523 0 2522 4463 -5 c2681 -3 4630 -10 4882 -16z"/>
<path d="M0 23866 l0 -11876 3208 0 3209 0 6 547 c4 302 8 2346 8 4543 1 2197
5 5685 8 7750 l6 3755 2286 -4325 c1258 -2379 3228 -6108 4379 -8287 l2093
-3963 3092 0 3091 0 2481 4693 c1364 2580 3335 6309 4379 8286 l1899 3594 7
-4194 c5 -2307 11 -6040 14 -8296 l6 -4103 3189 0 3189 0 0 11876 0 11877
-3627 -8 c-1996 -4 -3951 -11 -4346 -14 l-718 -6 -3033 -5685 c-3717 -6971
-4944 -9265 -5966 -11165 -430 -798 -548 -1016 -559 -1028 -4 -4 -29 32 -56
80 -300 546 -2047 3805 -3873 7228 -402 754 -1836 3440 -3186 5970 l-2455
4600 -718 6 c-395 3 -2359 10 -4365 14 l-3648 8 0 -11877z"/>
<path d="M52640 35730 c-500 -8 -672 -16 -694 -34 -8 -6 -104 -182 -214 -391
-1380 -2626 -11534 -22038 -12077 -23088 -59 -114 -104 -211 -100 -215 4 -4
1612 -8 3573 -10 l3567 -3 1125 2250 1125 2250 6600 -6 c3630 -3 6603 -8 6607
-12 4 -3 226 -449 494 -991 267 -542 767 -1549 1109 -2238 l623 -1252 3586 0
c1972 0 3586 3 3586 6 0 3 -51 101 -114 218 -271 502 -2559 4873 -9159 17491
l-3154 6030 -3014 1 c-1658 0 -3219 -3 -3469 -6z m3687 -7432 c1553 -3132
3115 -6296 3449 -6986 l94 -194 -4278 5 c-2500 2 -4288 8 -4304 13 l-28 9 324
655 c603 1223 1087 2201 1990 4020 1682 3388 1991 4007 1994 4004 2 -1 343
-688 759 -1526z"/>
<path d="M139797 34073 c2 -918 8 -4654 13 -8304 l10 -6636 60 -272 c180 -816
354 -1323 671 -1951 823 -1633 2270 -2919 4379 -3893 1631 -753 3500 -1242
5740 -1502 975 -113 1388 -129 3245 -129 1640 0 2096 13 2765 80 2422 241
4425 739 6165 1534 202 92 690 339 900 455 826 454 1493 954 2145 1606 603
603 993 1132 1340 1814 364 718 558 1284 669 1955 66 394 71 463 81 1045 17
941 30 5438 30 10738 l0 5127 -3209 0 -3209 0 -6 -2152 c-4 -1184 -11 -3969
-16 -6188 -12 -4765 -22 -5810 -61 -6200 -21 -221 -107 -670 -189 -985 -86
-334 -192 -637 -302 -863 -265 -545 -837 -1190 -1403 -1585 -309 -214 -856
-486 -1360 -675 -962 -360 -1821 -511 -3375 -594 -334 -18 -1783 -18 -2085 0
-989 58 -1618 144 -2334 318 -1221 296 -2168 767 -2827 1407 -715 693 -1099
1458 -1293 2577 -58 336 -82 544 -91 805 -21 563 -30 3130 -30 8483 l0 5652
-3213 0 -3213 0 3 -1667z"/>
<path d="M174340 23865 l0 -11875 3210 0 3210 0 0 11875 0 11875 -3210 0
-3210 0 0 -11875z"/>
<path d="M225160 35699 c-13 -24 -1371 -2618 -3018 -5764 -1647 -3146 -3789
-7239 -4760 -9095 -3302 -6314 -4291 -8202 -4513 -8616 -66 -122 -119 -225
-119 -228 0 -3 1616 -5 3590 -4 l3591 3 618 1250 c340 688 839 1696 1108 2240
l490 990 1484 6 c816 3 3789 7 6607 8 l5124 1 690 -1387 c380 -764 883 -1776
1118 -2250 l428 -863 3404 0 c3220 0 3748 3 3748 21 0 8 31 -52 -1318 2529
-1074 2056 -2637 5042 -4373 8360 -624 1191 -2387 4562 -3919 7491 l-2785
5326 -825 6 c-454 4 -2068 10 -3587 14 l-2761 6 -22 -44z m4509 -7651 c1545
-3101 3303 -6656 3383 -6841 11 -26 18 -50 15 -53 -18 -18 -1041 -26 -3997
-30 -3065 -4 -4579 1 -4595 18 -16 15 3602 7250 4203 8406 63 122 119 222 124
222 5 0 395 -775 867 -1722z"/>
<path d="M92585 5024 c-282 -26 -504 -93 -701 -209 -209 -124 -379 -312 -462
-511 -51 -122 -74 -242 -79 -409 -6 -187 8 -292 62 -451 58 -176 119 -286 267
-486 l80 -108 -179 -187 c-328 -345 -435 -514 -510 -800 -26 -101 -28 -121
-27 -303 0 -163 4 -212 22 -297 60 -278 187 -515 379 -708 312 -315 751 -485
1253 -485 407 0 733 90 1232 341 l82 41 26 -30 c14 -16 81 -94 150 -172 l125
-142 605 6 c543 5 781 14 797 29 15 16 -31 71 -243 289 -219 225 -735 780
-742 798 -2 4 31 79 72 166 206 438 288 742 331 1229 8 94 15 187 15 208 l0
37 -439 0 c-410 0 -440 -1 -445 -17 -5 -19 -37 -238 -56 -383 -31 -246 -110
-520 -150 -520 -18 0 -226 203 -460 448 -249 263 -250 264 -232 286 9 12 85
94 169 182 167 175 242 263 313 369 138 204 200 416 200 679 0 299 -99 537
-302 732 -105 100 -180 152 -322 220 -129 62 -276 107 -431 134 -109 18 -323
31 -400 24z m188 -839 c104 -22 179 -73 220 -150 30 -57 32 -231 2 -290 -36
-73 -246 -273 -338 -321 -37 -20 -53 -10 -125 79 -133 162 -183 267 -185 382
-2 152 106 279 260 305 71 12 91 11 166 -5z m-209 -2207 c207 -213 826 -870
826 -877 0 -11 -188 -90 -261 -111 -218 -60 -522 -47 -684 29 -306 144 -450
526 -290 768 83 126 252 302 290 303 6 0 59 -50 119 -112z"/>
<path d="M156295 4814 c-297 -18 -480 -40 -712 -85 -697 -136 -1282 -452
-1648 -889 -218 -261 -380 -607 -434 -931 -54 -323 -43 -827 25 -1129 43 -190
157 -452 269 -619 417 -621 1164 -1007 2180 -1128 189 -22 824 -25 1035 -5
887 86 1508 312 1953 709 363 325 585 769 674 1350 24 157 24 538 -1 693 -78
496 -284 909 -621 1245 -256 256 -518 417 -868 534 -390 130 -777 207 -1197
240 -145 12 -556 21 -655 15z m617 -1019 c539 -57 847 -181 1114 -449 194
-194 269 -332 321 -591 15 -74 18 -138 18 -355 -1 -294 -14 -390 -75 -549
-160 -415 -627 -716 -1270 -817 -138 -21 -553 -30 -720 -15 -488 45 -808 143
-1054 324 -153 112 -313 293 -383 432 -37 72 -80 209 -99 310 -23 128 -26 529
-5 645 77 420 398 762 883 944 163 60 363 102 599 125 145 14 524 12 671 -4z"/>
<path d="M71401 4799 c-623 -28 -1119 -159 -1456 -383 -266 -178 -429 -408
-495 -701 -50 -224 -18 -552 74 -750 76 -164 219 -317 426 -454 363 -241 702
-352 1850 -607 617 -137 800 -189 964 -271 145 -73 188 -128 188 -243 1 -85
-26 -146 -85 -194 -122 -98 -329 -159 -692 -202 -186 -23 -660 -26 -870 -6
-444 42 -877 128 -1231 246 -88 30 -267 100 -398 156 -130 56 -240 99 -244 96
-8 -8 -3 -763 6 -960 l7 -139 90 -29 c549 -175 1013 -268 1615 -325 235 -22
931 -25 1145 -5 747 70 1236 234 1561 524 206 184 296 344 350 623 13 67 18
140 18 290 -1 215 -10 280 -58 409 -82 218 -353 488 -651 651 -299 162 -803
317 -1775 544 -611 144 -802 205 -955 307 -127 84 -141 187 -39 288 169 166
911 236 1599 150 379 -47 961 -201 1448 -381 47 -17 49 -17 62 0 7 10 16 54
20 98 7 77 1 465 -11 785 l-6 152 -175 52 c-537 159 -1131 254 -1743 280 -259
11 -287 11 -539 -1z"/>
<path d="M107630 4799 c-74 -4 -200 -17 -280 -29 -891 -129 -1497 -421 -1911
-921 -276 -332 -414 -657 -470 -1104 -19 -153 -16 -564 5 -710 81 -561 315
-986 736 -1337 462 -386 1017 -582 1895 -670 173 -17 829 -17 985 0 524 58
925 167 1299 353 579 287 968 719 1151 1279 114 350 121 1068 14 1439 -236
815 -848 1343 -1834 1586 -256 63 -541 96 -995 115 -266 11 -394 11 -595 -1z
m540 -999 c518 -32 718 -71 966 -190 412 -198 656 -521 720 -951 22 -150 15
-438 -14 -579 -123 -593 -540 -918 -1337 -1042 -265 -41 -672 -36 -987 12
-632 96 -1056 394 -1222 858 -91 256 -100 643 -21 918 33 112 109 272 175 368
171 247 459 433 808 520 82 21 345 75 432 89 51 8 320 7 480 -3z"/>
<path d="M129615 4800 c-426 -26 -746 -84 -1073 -195 -275 -93 -394 -166 -583
-354 -191 -192 -281 -371 -319 -636 -15 -106 -12 -358 5 -440 17 -80 71 -194
146 -310 68 -105 241 -276 349 -348 337 -221 816 -382 1725 -578 810 -175 987
-225 1130 -320 85 -57 119 -94 151 -164 31 -65 30 -109 -2 -174 -79 -158 -372
-265 -829 -302 -185 -15 -650 -6 -855 15 -446 48 -844 130 -1190 245 -80 27
-252 95 -384 150 -131 56 -241 99 -245 96 -8 -8 -5 -737 4 -942 l7 -151 147
-51 c283 -98 554 -165 891 -220 681 -110 1401 -137 2000 -75 1023 106 1621
520 1731 1199 7 44 13 145 12 225 0 314 -85 521 -302 743 -359 368 -761 528
-2073 827 -876 199 -1122 294 -1169 449 -37 124 81 228 321 285 384 92 919 99
1439 21 392 -59 871 -183 1239 -320 80 -30 152 -55 159 -55 34 0 38 48 37 475
0 420 -9 559 -36 576 -22 14 -298 88 -518 139 -613 143 -951 187 -1480 194
-157 3 -352 1 -435 -4z"/>
<path d="M140745 4804 c-671 -51 -1208 -187 -1674 -424 -584 -297 -977 -750
-1111 -1285 -75 -294 -97 -719 -59 -1115 30 -314 187 -676 416 -960 87 -108
281 -293 403 -384 328 -245 743 -423 1198 -515 699 -142 1571 -144 2472 -5
305 47 581 107 990 217 l125 34 3 1166 2 1167 -1319 0 -1319 0 4 -122 c3 -68
9 -287 14 -487 5 -200 12 -366 15 -369 7 -7 661 -20 1048 -21 l297 -1 0 -269
c0 -248 -1 -270 -17 -275 -399 -119 -876 -172 -1316 -148 -812 46 -1285 246
-1560 659 -160 240 -221 449 -221 753 0 257 35 421 128 596 119 224 327 423
566 544 360 181 981 279 1578 250 405 -20 728 -72 1096 -177 218 -61 338 -107
640 -240 142 -63 261 -111 265 -108 3 4 7 257 9 563 l3 557 -228 72 c-543 172
-913 249 -1493 310 -137 14 -828 26 -955 17z"/>
<path d="M76750 2412 c0 -1260 4 -2293 8 -2296 9 -5 4635 14 4641 20 6 6 30
967 25 976 -3 5 -772 8 -1710 8 l-1704 0 0 435 0 435 1580 0 1580 0 0 500 0
500 -1580 0 -1580 0 0 353 0 354 1488 7 c818 3 1571 9 1675 13 l187 6 0 477 0
477 -837 7 c-461 3 -1498 9 -2305 12 l-1468 7 0 -2291z"/>
<path d="M98155 4690 c-246 -8 -359 -20 -380 -41 -13 -13 -18 -2058 -8 -3469
l8 -1045 265 -6 c146 -4 424 -10 618 -14 l352 -7 0 731 0 731 878 0 c1622 1
1848 21 2227 205 308 149 544 396 670 699 65 158 70 202 70 666 -1 457 -4 490
-64 646 -147 381 -495 672 -974 814 -175 52 -294 69 -557 81 -305 13 -2766 20
-3105 9z m2450 -1000 c493 -12 643 -29 771 -89 164 -77 244 -238 244 -488 0
-125 -17 -209 -60 -293 -81 -161 -187 -207 -535 -230 -82 -5 -570 -10 -1082
-10 l-933 0 0 560 0 560 613 0 c336 -1 779 -5 982 -10z"/>
<path d="M114130 4689 c-343 -10 -498 -23 -519 -44 -14 -14 -16 -212 -14
-1953 0 -1065 4 -2077 8 -2248 l7 -311 342 -7 c187 -3 464 -9 614 -13 l272 -6
0 856 0 857 660 0 659 0 453 -552 c250 -304 566 -690 703 -856 l250 -304 640
5 c683 5 737 9 743 52 4 29 -227 319 -878 1105 -277 333 -504 617 -508 634 -4
16 50 51 164 109 209 105 416 280 553 465 180 245 227 417 218 797 -7 285 -42
463 -126 642 -119 248 -309 437 -576 568 -221 109 -438 166 -706 185 -405 28
-2232 40 -2959 19z m2425 -969 c431 -32 564 -78 634 -217 38 -77 53 -167 49
-298 -5 -140 -27 -208 -89 -279 -96 -109 -218 -121 -1409 -136 -426 -5 -803
-10 -837 -10 l-63 0 0 481 0 482 788 -6 c433 -3 850 -11 927 -17z"/>
<path d="M121163 4689 c-266 -3 -498 -10 -517 -13 -26 -5 -35 -13 -41 -34 -4
-15 -9 -232 -12 -483 l-5 -457 104 -6 c56 -3 490 -8 963 -12 473 -3 862 -8
864 -10 6 -6 20 -1827 20 -2763 l1 -803 353 7 c193 4 471 10 617 14 l265 6 7
885 c4 487 11 1289 14 1783 l6 897 959 0 959 0 0 500 0 500 -2037 -2 c-1121
-1 -2255 -5 -2520 -9z"/>
<path d="M146174 3248 c3 -799 9 -1827 12 -2284 l7 -831 351 -7 c193 -3 469
-9 614 -13 l262 -6 0 856 0 857 658 0 657 0 387 -473 c213 -259 528 -643 701
-852 l313 -380 425 -3 c391 -3 896 10 962 24 15 4 27 10 27 14 0 17 -497 629
-1092 1342 -191 230 -349 422 -350 427 -2 6 60 39 137 74 214 96 359 198 505
354 95 102 160 195 222 317 79 157 89 210 95 498 9 392 -17 570 -108 752 -176
353 -479 576 -947 697 -297 77 -391 80 -2246 86 l-1599 5 7 -1454z m2191 482
c1039 -16 1219 -34 1331 -133 113 -98 162 -388 91 -540 -36 -78 -76 -127 -139
-170 -74 -51 -141 -65 -361 -77 -148 -8 -1478 -30 -1808 -30 l-59 0 0 484 0
483 138 -3 c75 -2 439 -9 807 -14z"/>
<path d="M162090 3288 c0 -1408 5 -1689 35 -1894 41 -276 104 -390 362 -651
132 -132 244 -220 401 -314 605 -360 1610 -499 2662 -368 91 11 219 31 285 44
545 109 1055 381 1341 717 97 113 135 172 228 358 l83 165 7 940 c3 517 9
1272 13 1678 l6 737 -631 0 -632 0 0 -1012 c0 -1294 -15 -1807 -56 -1963 -25
-94 -107 -253 -167 -326 -168 -203 -462 -323 -917 -375 -219 -25 -593 -16
-790 19 -252 45 -453 113 -598 204 -110 68 -235 191 -272 267 -81 167 -92 354
-115 2051 -9 610 -17 1110 -18 1111 -4 4 -908 24 -1074 24 l-153 0 0 -1412z"/>
<path d="M170216 3228 c4 -810 9 -1837 13 -2283 l6 -810 265 -6 c146 -4 424
-10 618 -14 l352 -7 0 731 0 731 878 0 c1189 1 1556 13 1796 61 224 45 487
154 650 270 97 70 232 205 293 294 141 208 219 467 243 805 30 432 -64 826
-261 1090 -72 97 -203 221 -304 289 -227 151 -561 261 -887 291 -239 21 -864
30 -2246 30 l-1423 0 7 -1472z m2789 452 c580 -13 727 -29 852 -90 96 -47 175
-162 208 -302 18 -75 20 -265 4 -340 -18 -84 -73 -190 -123 -236 -107 -98
-290 -117 -1286 -127 -305 -3 -698 -8 -872 -11 l-318 -6 0 567 0 566 558 -6
c306 -3 746 -10 977 -15z"/>
<path d="M85673 4681 c-28 -4 -54 -9 -57 -11 -17 -18 -2156 -4117 -2312 -4432
-26 -54 -45 -100 -41 -104 13 -13 392 -23 889 -23 l478 -1 220 440 220 440
1258 0 1257 0 220 -441 220 -441 595 6 c552 5 740 13 758 30 10 11 -444 888
-1698 3283 l-655 1250 -215 6 c-262 8 -1065 7 -1137 -2z m857 -1553 c98 -200
271 -554 384 -788 l205 -425 -399 -3 c-219 -1 -581 -1 -803 0 l-405 3 277 555
c347 694 523 1020 551 1020 6 0 91 -163 190 -362z"/>
</g>
</svg>
