<?xml version="1.0" standalone="no"?>
<!DOCTYPE svg PUBLIC "-//W3C//DTD SVG 20010904//EN"
 "http://www.w3.org/TR/2001/REC-SVG-20010904/DTD/svg10.dtd">
<svg version="1.0" xmlns="http://www.w3.org/2000/svg"
 width="6296.000000pt" height="3080.000000pt" viewBox="0 0 6296.000000 3080.000000"
 preserveAspectRatio="xMidYMid meet">

<g transform="translate(0.000000,3080.000000) scale(0.100000,-0.100000)"
fill="#000000" stroke="none">
<path d="M0 15400 l0 -15400 31480 0 31480 0 0 15400 0 15400 -31480 0 -31480
0 0 -15400z m41430 13419 c484 -28 985 -94 1400 -183 986 -212 1814 -656 2321
-1243 312 -362 470 -700 525 -1122 19 -145 14 -206 -25 -288 -33 -69 -89 -122
-171 -159 -100 -47 -130 -63 -245 -139 -339 -223 -640 -480 -1045 -891 -439
-446 -833 -913 -1314 -1554 -671 -895 -1315 -1862 -2034 -3055 -79 -132 -146
-242 -147 -243 -2 -2 -77 25 -167 61 -139 56 -233 88 -493 172 -22 7 -39 17
-38 23 3 15 269 526 396 762 126 234 356 646 446 799 l61 103 -24 33 c-51 66
-214 241 -269 288 l-56 48 -57 -113 c-125 -249 -369 -877 -610 -1572 -57 -165
-106 -301 -108 -303 -2 -2 -34 3 -72 11 -204 46 -531 89 -771 102 -68 4 -123
11 -123 16 0 20 77 362 126 563 113 456 262 933 413 1324 39 101 71 186 71
189 0 8 -427 -7 -650 -23 -1477 -106 -3128 -504 -5270 -1270 -1255 -449 -2641
-1028 -4450 -1858 -234 -107 -677 -310 -985 -452 -805 -369 -981 -441 -1290
-530 -285 -82 -417 -99 -551 -74 -32 7 -64 17 -70 23 -12 12 -34 125 -34 172
0 51 19 99 54 140 28 33 62 53 178 104 282 125 566 273 998 520 977 559 2135
1201 2830 1569 600 319 1616 820 2211 1092 2469 1127 4719 1790 6594 1943 318
26 375 29 693 35 l314 6 222 440 c122 242 248 489 280 549 l59 109 -339 -6
c-186 -3 -418 -13 -514 -21 -1148 -104 -2341 -388 -3795 -903 -1835 -650
-3686 -1499 -5530 -2536 -779 -438 -1296 -750 -2815 -1697 -1437 -896 -1736
-1072 -2290 -1349 -375 -187 -555 -261 -722 -295 -100 -21 -418 -50 -428 -39
-4 4 -15 50 -24 101 -10 50 -23 124 -30 163 l-14 70 132 66 c498 250 681 364
1866 1162 3030 2043 5916 3735 7790 4568 574 255 1460 598 2160 834 1253 424
2604 721 3700 814 409 34 1048 44 1288 19 l60 -7 188 384 c214 438 505 1015
636 1262 49 93 88 170 86 172 -4 4 -253 31 -428 47 -196 18 -1088 18 -1305 0
-1187 -96 -2171 -290 -3305 -654 -1627 -521 -3050 -1243 -4990 -2533 -937
-622 -1370 -931 -4180 -2976 -2324 -1691 -3298 -2350 -4300 -2908 -304 -170
-867 -453 -1070 -538 -283 -119 -542 -203 -630 -203 -87 0 -158 43 -206 127
-25 41 -25 47 -15 105 6 34 22 78 36 99 26 40 30 43 360 229 988 558 1923
1218 4345 3065 1529 1166 2432 1832 3500 2582 1318 925 2779 1882 3880 2543
1846 1109 3832 1816 5770 2054 692 85 1394 112 2010 75z m-2755 -9049 c732
-43 1356 -210 2005 -534 485 -243 911 -536 1394 -959 195 -171 589 -563 785
-782 659 -734 1310 -1640 1968 -2740 228 -382 223 -369 97 -235 -183 196 -682
689 -834 824 -1135 1008 -2255 1601 -3495 1851 -1160 234 -2384 185 -4112
-166 -490 -99 -894 -191 -1988 -453 -979 -234 -1330 -314 -1800 -415 -1518
-324 -2705 -486 -4035 -553 -533 -26 -1462 -14 -2060 28 -2422 167 -4812 812
-7355 1985 -456 210 -1574 773 -1561 786 2 2 127 -48 277 -110 2148 -894 4239
-1411 6279 -1551 429 -30 776 -39 1305 -33 508 6 653 11 1060 42 1369 104
2767 383 4295 857 681 211 1324 435 2480 865 1380 513 1869 685 2443 858 1142
343 2051 482 2852 435z m1020 -3089 c400 -38 716 -91 1048 -175 1053 -268
2024 -818 2977 -1686 250 -228 910 -906 910 -935 0 -4 -42 32 -92 80 -488 460
-1171 909 -1803 1185 -1373 599 -2980 786 -5165 600 -803 -69 -1469 -154
-3195 -409 -1360 -201 -2030 -288 -2710 -350 -551 -51 -908 -70 -1425 -78
-511 -7 -848 6 -1315 49 -117 11 -125 13 -80 19 28 4 138 12 245 19 814 46
1844 178 2860 365 778 143 1263 250 2641 580 1401 336 1983 463 2659 579 423
73 909 133 1265 156 94 6 193 12 220 14 100 7 853 -3 960 -13z m-7515 -5825
c380 -35 694 -83 1045 -161 352 -79 761 -195 1010 -287 l90 -34 3 -698 c1
-384 -1 -696 -5 -694 -5 2 -105 51 -223 110 -631 312 -1345 502 -2100 558
-187 14 -705 14 -885 0 -683 -53 -1226 -226 -1580 -505 -268 -211 -463 -518
-531 -837 -88 -415 -40 -869 127 -1200 63 -126 204 -314 310 -414 307 -289
811 -485 1439 -560 182 -22 785 -30 1003 -15 318 23 516 58 835 148 l202 56 0
344 0 343 -860 0 -860 0 0 625 0 625 1635 0 1635 0 -2 -1457 -3 -1458 -160
-48 c-672 -202 -1554 -347 -2409 -397 -229 -13 -735 -13 -941 0 -947 61 -1672
258 -2276 621 -718 431 -1140 1080 -1254 1929 -22 166 -30 514 -16 695 74 915
513 1629 1290 2095 566 340 1327 559 2151 620 80 5 163 12 185 14 112 11 982
-3 1145 -18z m18355 0 c474 -47 903 -120 1360 -231 172 -42 530 -141 588 -164
l27 -11 0 -659 0 -660 -111 50 c-528 235 -1250 426 -1866 493 -478 53 -1118
38 -1508 -35 -370 -69 -548 -207 -506 -393 45 -197 340 -333 1071 -495 74 -16
263 -57 420 -91 891 -192 1290 -301 1689 -462 767 -309 1176 -715 1266 -1257
24 -142 16 -450 -15 -596 -42 -197 -110 -358 -221 -526 -90 -136 -281 -323
-429 -421 -366 -243 -911 -408 -1565 -472 -552 -54 -1417 -46 -1955 20 -557
67 -1189 213 -1673 385 l-117 41 0 679 c0 373 2 679 5 679 3 0 77 -36 164 -79
226 -114 392 -182 661 -271 713 -237 1459 -339 2278 -310 399 14 694 59 921
139 194 68 310 150 362 257 116 236 -35 419 -468 568 -215 73 -465 133 -1115
265 -806 165 -1150 252 -1497 383 -457 171 -718 320 -943 536 -112 108 -172
183 -242 302 -149 251 -196 559 -141 915 65 415 316 767 720 1010 362 217 953
372 1580 415 88 5 178 12 200 14 111 10 910 -3 1060 -18z m-44986 -2268 c630
-1182 1148 -2148 1151 -2148 3 0 521 967 1151 2148 l1145 2147 1042 3 1042 2
0 -2850 0 -2850 -765 0 -765 0 -2 1993 -3 1993 -1052 -1991 -1052 -1990 -741
0 -742 0 -1051 1990 -1052 1990 -3 -1993 -2 -1992 -770 0 -770 0 0 2850 0
2850 1047 -2 1046 -3 1146 -2147z m12411 -645 c805 -1539 1477 -2822 1493
-2850 l29 -53 -861 0 -861 0 -268 539 -267 540 -1585 0 -1585 1 -270 -540
-270 -540 -857 0 c-472 0 -858 2 -858 3 0 4 2963 5668 2975 5687 4 7 285 10
864 10 l858 0 1463 -2797z m6405 2787 c694 -46 1180 -222 1508 -547 164 -163
277 -344 350 -563 130 -391 139 -905 22 -1266 -40 -121 -147 -329 -219 -424
-89 -119 -253 -274 -379 -358 -122 -81 -339 -192 -474 -243 -51 -19 -93 -37
-93 -40 0 -3 416 -508 925 -1122 509 -614 925 -1118 925 -1121 0 -4 -404 -6
-898 -6 l-897 0 -864 1050 -863 1050 -834 0 -834 0 -2 -1047 -3 -1048 -770 0
-770 0 -3 2835 c-1 1559 0 2841 3 2848 6 15 3932 18 4170 2z m13035 -1667 c0
-1057 4 -1711 10 -1768 40 -357 134 -572 337 -766 202 -195 537 -329 957 -384
388 -50 978 -34 1305 36 215 46 447 139 594 236 137 91 277 245 346 380 49 97
90 240 118 416 15 92 17 273 20 1815 l4 1712 769 0 770 0 0 -1927 c0 -1224 -4
-1961 -10 -2018 -24 -217 -69 -368 -170 -570 -87 -175 -188 -311 -346 -466
-185 -180 -359 -301 -619 -431 -446 -223 -974 -359 -1640 -420 -191 -18 -1000
-18 -1195 0 -684 62 -1223 203 -1685 441 -599 308 -953 737 -1077 1306 l-22
100 -3 1993 -3 1992 770 0 770 0 0 -1677z m8290 -1173 l0 -2850 -770 0 -770 0
0 2850 0 2850 770 0 770 0 0 -2850z m13871 0 c819 -1564 1489 -2846 1489
-2847 0 -2 -386 -3 -858 -3 l-859 0 -268 540 -269 540 -1586 0 -1585 -1 -267
-539 -267 -540 -861 0 -862 0 39 73 c22 39 693 1322 1492 2850 l1454 2777 860
-2 860 -3 1488 -2845z m-34919 -4531 c159 -34 247 -139 236 -282 -7 -80 -35
-135 -110 -213 l-59 -62 82 -86 c44 -47 85 -86 90 -86 9 0 27 57 35 115 3 22
7 55 10 73 l5 32 106 0 106 0 -6 -72 c-8 -93 -30 -176 -67 -257 l-30 -63 89
-97 c49 -53 103 -109 120 -125 17 -17 31 -33 31 -38 0 -4 -76 -8 -169 -8
l-169 0 -36 40 -36 41 -73 -35 c-309 -148 -638 6 -641 299 0 92 32 164 114
249 l60 62 -26 35 c-72 94 -92 201 -58 302 46 135 221 213 396 176z m-4836
-69 c60 -11 136 -28 169 -38 l60 -18 3 -128 c2 -120 1 -128 -15 -121 -97 38
-239 77 -333 91 -173 25 -365 8 -405 -36 -45 -50 13 -89 193 -130 368 -85 472
-123 557 -201 69 -64 89 -108 88 -199 -1 -117 -37 -185 -134 -249 -177 -118
-613 -129 -954 -24 l-60 19 -3 132 c-1 73 -1 132 1 132 2 0 35 -14 73 -31 156
-71 404 -109 580 -89 151 16 206 50 190 115 -8 33 -74 61 -213 91 -335 73
-416 98 -513 164 -78 52 -113 113 -118 202 -14 234 204 357 604 342 67 -2 171
-13 230 -24z m8682 4 c261 -54 422 -190 477 -401 19 -74 19 -233 0 -308 -77
-294 -404 -455 -842 -414 -209 19 -356 76 -466 179 -108 101 -159 223 -159
385 -1 164 41 274 145 383 101 104 246 166 453 192 92 12 299 3 392 -16z
m5262 1 c85 -15 237 -52 252 -61 4 -3 8 -62 8 -131 0 -115 -1 -125 -17 -118
-178 71 -392 111 -543 101 -144 -9 -210 -33 -210 -76 0 -44 60 -69 293 -121
283 -63 389 -104 474 -182 61 -56 87 -114 86 -197 -1 -157 -102 -266 -293
-315 -206 -53 -594 -31 -815 48 l-40 14 -3 131 c-1 73 -1 132 1 132 2 0 34
-14 71 -30 243 -110 665 -130 759 -36 39 40 8 92 -71 120 -24 9 -121 32 -215
52 -320 67 -450 126 -514 234 -29 47 -33 63 -33 125 0 86 29 154 88 207 51 46
78 60 167 87 138 42 369 49 555 16z m2571 15 c116 -11 227 -33 331 -66 l78
-25 0 -134 c0 -74 -2 -135 -4 -135 -2 0 -37 16 -78 34 -229 107 -542 125 -753
46 -85 -33 -158 -108 -181 -185 -45 -158 17 -314 154 -384 126 -64 367 -78
545 -30 l37 10 0 64 0 65 -162 2 -163 3 -3 118 -3 117 316 0 315 0 0 -279 0
-280 -52 -14 c-281 -79 -621 -93 -846 -37 -238 60 -402 211 -443 409 -6 32 -9
102 -7 166 6 126 30 201 95 287 142 187 461 283 824 248z m3706 -1 c104 -11
240 -47 306 -80 212 -107 323 -328 287 -572 -43 -293 -250 -454 -628 -487
-429 -38 -759 124 -834 409 -22 85 -23 234 -2 315 78 302 421 465 871 415z
m-18192 -139 l0 -115 -402 -3 -403 -2 0 -85 0 -85 380 0 380 0 0 -120 0 -120
-380 0 -380 0 0 -105 0 -105 410 0 411 0 -3 -117 -3 -118 -557 -3 -558 -2 0
550 0 550 553 -2 552 -3 0 -115z m1642 -425 c155 -297 283 -543 283 -547 0 -5
-73 -8 -163 -8 l-162 0 -53 105 -52 105 -303 0 -302 0 -53 -105 -52 -105 -165
0 c-91 0 -165 2 -165 5 0 5 548 1055 567 1088 2 4 79 6 171 5 l166 -3 283
-540z m3203 536 c139 -23 246 -94 291 -193 21 -46 24 -68 24 -173 0 -104 -3
-127 -23 -170 -29 -63 -83 -120 -144 -151 -92 -47 -150 -54 -465 -54 l-293 0
0 -175 0 -176 -147 3 -148 3 -3 535 c-1 294 0 541 3 548 3 9 98 12 427 12 233
0 448 -4 478 -9z m3770 -2 c134 -21 227 -85 271 -184 31 -70 38 -194 14 -266
-23 -67 -96 -147 -165 -179 -28 -13 -49 -27 -48 -31 2 -4 76 -96 166 -204 90
-108 166 -203 169 -211 4 -12 -23 -14 -164 -14 l-169 0 -169 205 -168 205
-159 0 -158 0 0 -205 0 -206 -147 3 -148 3 -3 535 c-1 294 0 541 3 548 6 16
777 17 875 1z m2030 -109 l0 -120 -230 0 -230 0 -2 -427 -3 -428 -147 -3 -148
-3 -2 428 -3 428 -232 3 -233 2 0 114 c0 62 3 116 7 119 3 4 280 7 615 7 l608
0 0 -120z m5805 105 c134 -29 213 -85 259 -184 16 -37 21 -66 21 -146 0 -89
-3 -106 -27 -151 -32 -61 -94 -119 -159 -148 l-48 -21 175 -210 c95 -115 174
-213 174 -217 0 -5 -76 -8 -169 -8 l-169 0 -169 205 -168 205 -157 0 -158 0 0
-205 0 -206 -147 3 -148 3 -3 548 -2 547 412 0 c326 0 428 -3 483 -15z m3225
-350 c5 -388 6 -390 62 -442 66 -62 227 -94 375 -74 153 19 228 73 252 181 6
26 11 186 11 373 l0 327 151 0 150 0 -3 -402 -3 -403 -28 -57 c-51 -104 -177
-192 -332 -232 -102 -26 -271 -37 -397 -26 -210 18 -355 76 -450 179 -89 95
-88 91 -88 548 l0 394 148 -3 147 -3 5 -360z m2585 350 c209 -44 304 -171 293
-389 -10 -184 -98 -288 -280 -331 -48 -11 -133 -15 -355 -15 l-293 0 0 -175 0
-176 -147 3 -148 3 -3 548 -2 547 432 0 c344 0 447 -3 503 -15z"/>
<path d="M43388 27486 c-25 -24 -1218 -1982 -1218 -1997 0 -10 39 -31 108 -58
332 -134 621 -316 840 -530 48 -48 77 -69 86 -64 7 4 68 71 137 148 316 356
662 702 986 987 122 107 195 178 199 194 9 35 -1 89 -37 202 -145 450 -448
790 -954 1069 -112 62 -129 68 -147 49z"/>
<path d="M41807 24913 c-8 -10 -105 -166 -214 -348 -386 -640 -605 -1014 -601
-1031 3 -15 780 -584 798 -584 4 0 25 26 46 58 252 382 626 902 912 1267 39
49 73 98 76 108 7 27 -35 69 -147 151 -215 155 -428 264 -705 360 -117 41
-142 43 -165 19z"/>
<path d="M15127 8281 c-284 -573 -517 -1044 -517 -1046 0 -3 465 -5 1034 -5
l1035 0 -198 403 c-109 221 -341 692 -517 1046 l-319 644 -518 -1042z"/>
<path d="M21740 8934 l0 -605 1198 4 c1053 4 1208 6 1292 20 329 57 467 163
523 401 18 79 14 318 -7 395 -62 228 -215 331 -554 376 -95 13 -305 15 -1283
15 l-1169 0 0 -606z"/>
<path d="M56697 8275 c-284 -569 -517 -1037 -517 -1040 0 -3 466 -5 1036 -5
612 0 1034 4 1032 9 -12 35 -1023 2071 -1027 2071 -4 0 -239 -466 -524 -1035z"/>
<path d="M24492 3147 c-31 -33 -28 -75 9 -125 17 -23 34 -42 39 -42 4 0 27 17
51 38 36 33 43 45 43 77 0 27 -6 43 -23 56 -33 27 -92 25 -119 -4z"/>
<path d="M24451 2624 c-34 -39 -41 -54 -41 -89 0 -51 31 -101 80 -126 45 -25
141 -25 195 -1 l40 18 -99 105 c-54 57 -107 112 -116 122 -16 18 -19 17 -59
-29z"/>
<path d="M28145 3074 c-11 -2 -45 -9 -75 -15 -160 -33 -257 -137 -268 -290
-11 -161 59 -273 206 -329 80 -31 216 -44 319 -32 226 27 339 125 351 305 11
174 -72 290 -243 342 -49 15 -251 29 -290 19z"/>
<path d="M39760 3069 c-138 -20 -247 -92 -291 -191 -18 -42 -23 -71 -23 -138
0 -109 26 -172 96 -235 60 -54 129 -81 245 -95 257 -33 471 56 518 214 19 65
19 169 -1 236 -21 72 -97 149 -178 179 -101 38 -239 49 -366 30z"/>
<path d="M22927 2815 l-97 -195 194 0 195 0 -91 188 c-50 103 -93 190 -97 194
-4 4 -50 -80 -104 -187z"/>
<path d="M26070 2915 l0 -135 265 0 c296 0 321 4 350 61 24 45 16 131 -14 163
-38 40 -82 46 -350 46 l-251 0 0 -135z"/>
<path d="M29870 2944 l0 -115 258 3 c279 3 290 5 313 60 15 37 5 106 -18 129
-29 30 -111 39 -339 39 l-214 0 0 -116z"/>
<path d="M37690 2945 l0 -116 254 3 c241 3 256 4 283 24 37 28 49 73 34 124
-21 70 -39 74 -323 78 l-248 4 0 -117z"/>
<path d="M43460 2915 l0 -136 278 3 c302 3 314 6 340 64 17 35 15 99 -3 134
-31 61 -52 65 -347 68 l-268 3 0 -136z"/>
</g>
</svg>
