<svg id="Layer_1" data-name="Layer 1" xmlns="http://www.w3.org/2000/svg" xmlns:xlink="http://www.w3.org/1999/xlink" viewBox="0 0 581.53 297.72"><defs><linearGradient id="linear-gradient" x1="-1580.91" y1="855.1" x2="-1572.74" y2="855.1" gradientTransform="matrix(0, 29.37, 29.37, 0, -25645.48, 47428.65)" gradientUnits="userSpaceOnUse"><stop offset="0" stop-color="#fff"/><stop offset="1"/></linearGradient><mask id="mask" x="-9668.61" y="-7989.89" width="18272.52" height="17612.81" maskUnits="userSpaceOnUse"><rect x="-6391.22" y="-6253.87" width="11717.73" height="14140.77" transform="translate(-913.15 -80.75) rotate(-56.1)" style="fill:url(#linear-gradient)"/></mask><clipPath id="clip-path"><rect width="581.53" height="297.72" style="fill:none"/></clipPath></defs><path d="M490,97.45c-2.17-9.45-8.61-15.16-16.8-19.37-.54-.28-.9-.21-1.17.34-.13.27-.32.51-.47.77q-8.8,14.4-17.61,28.82c-.24.39-.63.73-.58,1.35a39.46,39.46,0,0,1,16,10.07,6.35,6.35,0,0,0,.53-.47A171.52,171.52,0,0,1,489.4,99.48a1.72,1.72,0,0,0,.57-2m-26.91,27.78a41.42,41.42,0,0,0-14.12-7.45,1.1,1.1,0,0,0-1.47.62c-1,1.71-2.07,3.39-3.1,5.09-2.9,4.86-5.81,9.72-8.67,14.6-.82,1.39-1,1.26.56,2.38l10.26,7.4a1.87,1.87,0,0,0,1.13.58,6.06,6.06,0,0,0,.44-.54c4.74-7.19,9.74-14.2,15.12-20.94.58-.73.58-1.13-.15-1.74M507.6,101a5.73,5.73,0,0,1-3.61,3.23c-.23.09-.49.2-.6.26a84.75,84.75,0,0,0-15.75,12.42c-11.13,10.81-20.36,22.9-27.14,32.23-9.79,13.47-19.41,28.23-30,46a77.66,77.66,0,0,0-10.83-3.87c4.67-9.26,9.33-17.84,14.12-26a39.85,39.85,0,0,0-5.47-5.76,60.64,60.64,0,0,0-3.11,6.75c-3.29,8-6.21,16.18-8.88,24.16a80.48,80.48,0,0,0-15-1.89,177.31,177.31,0,0,1,9.57-32.34,123.49,123.49,0,0,0-12.47.51c-25.37,2.16-49.5,9.38-67.69,15.44-20.4,6.8-42,15.38-67.84,27-6.87,3.08-13.82,6.28-20.55,9.38q-8,3.66-15.93,7.29a73.71,73.71,0,0,1-16.36,5.58l-.15,0a7.37,7.37,0,0,1-2.85.13l-2-.4-.38-2a3.42,3.42,0,0,1,2.09-3.85,162.6,162.6,0,0,0,18.41-9.52l3.81-2.17c15.71-8.88,32-18.07,48.51-26.47,25.25-12.83,47-22.11,68.31-29.2a279.64,279.64,0,0,1,39.94-10.3,183.13,183.13,0,0,1,34-3c2.69-5.56,5.53-11.17,8.65-17.07a115.3,115.3,0,0,0-17.36.78c-23,2.56-44.52,9.75-60.72,15.72A562,562,0,0,0,258.83,178c-10.49,6.17-21,12.75-31.17,19.1q-5.85,3.66-11.74,7.32c-9.23,5.71-18.31,11.23-28,15.78a31.11,31.11,0,0,1-9.4,3.18c-.54.08-1.08.12-1.63.16l-3.37.3-1-5.21,2-1,1.52-.78c1.07-.55,2.14-1.1,3.2-1.67,6.21-3.37,12.19-7.44,18-11.38l2.63-1.78c36.08-24.42,66.84-43.33,96.8-59.55a344.65,344.65,0,0,1,38.51-18.28,373.66,373.66,0,0,1,35.59-12.41,260,260,0,0,1,36.82-7.78,150.74,150.74,0,0,1,26.54-1.15l1.48.12.43,0,1.69-3.45q2.37-4.85,4.76-9.68c2.32-4.64,5-9.93,7.79-15.15a140.67,140.67,0,0,0-30.92-.4c-20.59,1.85-41.11,6.84-62.7,15.26a280.18,280.18,0,0,0-42.75,21.53c-21.36,12.86-41.9,27.77-61.75,42.18l-3.52,2.55q-6.57,4.78-13.14,9.57c-14.73,10.74-30,21.85-45.3,32.32a314,314,0,0,1-36.28,21.79A99,99,0,0,1,140,225.39a17.08,17.08,0,0,1-2,.51l-.53.11a3.36,3.36,0,0,1-3.75-1.68l-.43-.78.08-.88a3.43,3.43,0,0,1,2.16-2.91c14.82-8.06,28.66-17.84,40.25-26.34,10.2-7.49,20.44-15.3,30.34-22.85,5.65-4.32,11.49-8.76,17.27-13.12,33.56-25.28,64.9-46.77,95.85-65.7a241.9,241.9,0,0,1,65.68-28.19,200.77,200.77,0,0,1,34.54-5.78A162.14,162.14,0,0,1,448,58c13,1.3,22.71,3.57,31.41,7.4S494.94,74,500.09,80.1a31.73,31.73,0,0,1,7.36,14.83l0,.13a6.45,6.45,0,0,1,.15.93c0,.26.07.57.12.91a8,8,0,0,1-.15,4.09M246,272.07c78.55,9,181.73-44.84,246.08,17.48l-1.65-1.84c-20.15-22.41-43.09-38.95-73.79-41.83-15.71-1.47-31.66.64-47.06,3.65-18.34,3.59-36.49,8.47-54.73,12.54-23.72,5.3-46.26,8.88-68.85,10M463.9,232.85c11,12.13,22.2,27.93,33.93,48.2-93.57-104-169.39,6.86-323-24.24-8.79-1.78-17.83-4-27.15-6.8-3-.89-5.95-1.82-9-2.82h-.07a402,402,0,0,1-65-28.35C99.52,230,123.45,237,145.65,241l.41.07q5.35,1,10.58,1.69a258.55,258.55,0,0,0,47.56,2.26c50.22-2.26,90.39-18.93,125.57-31.86,50-18.39,89.9-29.22,134.13,19.66" style="fill:#06f"/><g style="mask:url(#mask)"><g style="clip-path:url(#clip-path)"><path d="M490,97.45c-2.17-9.45-8.61-15.16-16.8-19.37-.54-.28-.9-.21-1.17.34-.13.27-.32.51-.47.77q-8.8,14.4-17.61,28.82c-.24.39-.63.73-.58,1.35a39.46,39.46,0,0,1,16,10.07,6.35,6.35,0,0,0,.53-.47A171.52,171.52,0,0,1,489.4,99.48a1.72,1.72,0,0,0,.57-2m-26.91,27.78a41.42,41.42,0,0,0-14.12-7.45,1.1,1.1,0,0,0-1.47.62c-1,1.71-2.07,3.39-3.1,5.09-2.9,4.86-5.81,9.72-8.67,14.6-.82,1.39-1,1.26.56,2.38l10.26,7.4a1.87,1.87,0,0,0,1.13.58,6.06,6.06,0,0,0,.44-.54c4.74-7.19,9.74-14.2,15.12-20.94.58-.73.58-1.13-.15-1.74M507.6,101a5.73,5.73,0,0,1-3.61,3.23c-.23.09-.49.2-.6.26a84.75,84.75,0,0,0-15.75,12.42c-11.13,10.81-20.36,22.9-27.14,32.23-9.79,13.47-19.41,28.23-30,46a77.66,77.66,0,0,0-10.83-3.87c4.67-9.26,9.33-17.84,14.12-26a39.85,39.85,0,0,0-5.47-5.76,60.64,60.64,0,0,0-3.11,6.75c-3.29,8-6.21,16.18-8.88,24.16a80.48,80.48,0,0,0-15-1.89,177.31,177.31,0,0,1,9.57-32.34,123.49,123.49,0,0,0-12.47.51c-25.37,2.16-49.5,9.38-67.69,15.44-20.4,6.8-42,15.38-67.84,27-6.87,3.08-13.82,6.28-20.55,9.38q-8,3.66-15.93,7.29a73.71,73.71,0,0,1-16.36,5.58l-.15,0a7.37,7.37,0,0,1-2.85.13l-2-.4-.38-2a3.42,3.42,0,0,1,2.09-3.85,162.6,162.6,0,0,0,18.41-9.52l3.81-2.17c15.71-8.88,32-18.07,48.51-26.47,25.25-12.83,47-22.11,68.31-29.2a279.64,279.64,0,0,1,39.94-10.3,183.13,183.13,0,0,1,34-3c2.69-5.56,5.53-11.17,8.65-17.07a115.3,115.3,0,0,0-17.36.78c-23,2.56-44.52,9.75-60.72,15.72A562,562,0,0,0,258.83,178c-10.49,6.17-21,12.75-31.17,19.1q-5.85,3.66-11.74,7.32c-9.23,5.71-18.31,11.23-28,15.78a31.11,31.11,0,0,1-9.4,3.18c-.54.08-1.08.12-1.63.16l-3.37.3-1-5.21,2-1,1.52-.78c1.07-.55,2.14-1.1,3.2-1.67,6.21-3.37,12.19-7.44,18-11.38l2.63-1.78c36.08-24.42,66.84-43.33,96.8-59.55a344.65,344.65,0,0,1,38.51-18.28,373.66,373.66,0,0,1,35.59-12.41,260,260,0,0,1,36.82-7.78,150.74,150.74,0,0,1,26.54-1.15l1.48.12.43,0,1.69-3.45q2.37-4.85,4.76-9.68c2.32-4.64,5-9.93,7.79-15.15a140.67,140.67,0,0,0-30.92-.4c-20.59,1.85-41.11,6.84-62.7,15.26a280.18,280.18,0,0,0-42.75,21.53c-21.36,12.86-41.9,27.77-61.75,42.18l-3.52,2.55q-6.57,4.78-13.14,9.57c-14.73,10.74-30,21.85-45.3,32.32a314,314,0,0,1-36.28,21.79A99,99,0,0,1,140,225.39a17.08,17.08,0,0,1-2,.51l-.53.11a3.36,3.36,0,0,1-3.75-1.68l-.43-.78.08-.88a3.43,3.43,0,0,1,2.16-2.91c14.82-8.06,28.66-17.84,40.25-26.34,10.2-7.49,20.44-15.3,30.34-22.85,5.65-4.32,11.49-8.76,17.27-13.12,33.56-25.28,64.9-46.77,95.85-65.7a241.9,241.9,0,0,1,65.68-28.19,200.77,200.77,0,0,1,34.54-5.78A162.14,162.14,0,0,1,448,58c13,1.3,22.71,3.57,31.41,7.4S494.94,74,500.09,80.1a31.73,31.73,0,0,1,7.36,14.83l0,.13a6.45,6.45,0,0,1,.15.93c0,.26.07.57.12.91a8,8,0,0,1-.15,4.09M246,272.07c78.55,9,181.73-44.84,246.08,17.48l-1.65-1.84c-20.15-22.41-43.09-38.95-73.79-41.83-15.71-1.47-31.66.64-47.06,3.65-18.34,3.59-36.49,8.47-54.73,12.54-23.72,5.3-46.26,8.88-68.85,10M463.9,232.85c11,12.13,22.2,27.93,33.93,48.2-93.57-104-169.39,6.86-323-24.24-8.79-1.78-17.83-4-27.15-6.8-3-.89-5.95-1.82-9-2.82h-.07a402,402,0,0,1-65-28.35C99.52,230,123.45,237,145.65,241l.41.07q5.35,1,10.58,1.69a258.55,258.55,0,0,0,47.56,2.26c50.22-2.26,90.39-18.93,125.57-31.86,50-18.39,89.9-29.22,134.13,19.66" style="fill:#002060"/></g></g></svg>