<svg xmlns="http://www.w3.org/2000/svg" width="27.316" height="36.42" viewBox="0 0 27.316 36.42">
    <g id="Group_1870" data-name="Group 1870" transform="translate(0.5 0.5)">
        <path id="Path_3417" data-name="Path 3417" d="M986.63,472.916v-2.884h2.9v2.884Z" transform="translate(-981.086 -464.486)" fill="#fff" stroke="#fff" stroke-linejoin="round" stroke-width="1"/>
        <path id="Path_3418" data-name="Path 3418" d="M1050.722,472.819v-2.891h2.892v2.891Z" transform="translate(-1039.287 -464.391)" fill="#fff" stroke="#fff" stroke-linejoin="round" stroke-width="1"/>
        <g id="Group_1829" data-name="Group 1829" transform="translate(0 0)">
            <path id="Path_3419" data-name="Path 3419" d="M946.17,409.683v15.881c.5.141,1,.241,1.463.419a7.487,7.487,0,0,1,3.334,11.706c-1.88,2.451-3.839,4.842-5.763,7.259-.035.044-.076.082-.144.155-.233-.29-.454-.565-.674-.841-.423-.532-.853-1.06-1.264-1.6a.612.612,0,0,0-.552-.261q-7.888.011-15.775.005h-.478v-.481q0-15.9,0-31.792c0-.15-.007-.3-.011-.449Zm-5.025,30.5c-.655-.823-1.265-1.588-1.873-2.354a7.5,7.5,0,0,1,2.631-11.593,18.685,18.685,0,0,1,2.04-.708V411.915H928.553v28.271Zm3.908,1.37a1.266,1.266,0,0,0,.11-.1c1.384-1.741,2.809-3.452,4.14-5.233a5.3,5.3,0,1,0-8.552-.11c.652.92,1.389,1.78,2.091,2.665C943.572,439.7,944.3,440.614,945.054,441.556Z" transform="translate(-926.306 -409.683)" fill="#fff" stroke="#fff" stroke-linejoin="round" stroke-width="1"/>
            <path id="Path_3420" data-name="Path 3420" d="M986.776,533.956h2.889v2.89h-2.889Z" transform="translate(-981.219 -522.535)" fill="#fff" stroke="#fff" stroke-linejoin="round" stroke-width="1"/>
            <path id="Path_3421" data-name="Path 3421" d="M1050.633,536.933v-2.882h2.9v2.882Z" transform="translate(-1039.207 -522.621)" fill="#fff" stroke="#fff" stroke-linejoin="round" stroke-width="1"/>
            <path id="Path_3422" data-name="Path 3422" d="M989.663,598.023v2.886H986.75v-2.886Z" transform="translate(-981.195 -580.714)" fill="#fff" stroke="#fff" stroke-linejoin="round" stroke-width="1"/>
            <path id="Path_3423" data-name="Path 3423" d="M1107.658,638.406a2.566,2.566,0,1,1-2.588-2.557A2.585,2.585,0,0,1,1107.658,638.406Z" transform="translate(-1086.331 -615.063)" fill="#fff" stroke="#fff" stroke-linejoin="round" stroke-width="1"/>
        </g>
    </g>
</svg>
