<svg xmlns="http://www.w3.org/2000/svg" width="41.918" height="38.109" viewBox="0 0 41.918 38.109">
    <g id="Group_1875" data-name="Group 1875" transform="translate(0.508 0)">
        <path id="Path_3486" data-name="Path 3486" d="M-3438.088,2177a1,1,0,0,1,.752,1.107c-.021.8-.005,1.61-.005,2.438H-3448V2177Z" transform="translate(3467.571 -2177)" fill="#fff"/>
        <path id="Path_3487" data-name="Path 3487" d="M-3552.015,2177v3.536h-7.113c0-.957-.043-1.9.029-2.837.019-.247.4-.466.609-.7Z" transform="translate(3569.827 -2177)" fill="#fff"/>
        <path id="Exclusion_1" data-name="Exclusion 1" d="M8.672,17.4c-.363-.914-.726-1.834-1.094-2.752q-1.949-4.867-3.9-9.734A.926.926,0,0,1,4.421,3.5C9.637,2.336,14.848,1.155,20.073.037a4.507,4.507,0,0,1,1.8.208q6.6,1.45,13.2,2.934c.465.1.929.216,1.4.316A.925.925,0,0,1,37.227,4.9c-.81,2.029-1.628,4.056-2.439,6.084s-1.628,4.081-2.442,6.122c-.038.1-.074.195-.109.286a2.551,2.551,0,0,0,2.809-.156c.543-.489,1.067-1,1.577-1.524a4.485,4.485,0,0,1,3.344-1.51.877.877,0,1,1,.09,1.752,3.276,3.276,0,0,0-2.373,1.206A15.6,15.6,0,0,1,36.066,18.7a4.459,4.459,0,0,1-5.579-.324c-.611-.573-1.162-1.217-1.807-1.747a2.619,2.619,0,0,0-3.689.2c-.515.5-1,1.031-1.527,1.522a4.466,4.466,0,0,1-5.891.129c-.541-.469-1.012-1.019-1.531-1.515a3.143,3.143,0,0,0-1.542-.92,2.858,2.858,0,0,0-2.752.97A14.8,14.8,0,0,1,9.887,18.75a4.464,4.464,0,0,1-5.78-.634c-.494-.5-.991-1-1.5-1.492a2.438,2.438,0,0,0-1.661-.657.883.883,0,0,1-.879-1.217A.833.833,0,0,1,.913,14.2a4.357,4.357,0,0,1,3.233,1.388c.556.554,1.094,1.132,1.694,1.634A2.521,2.521,0,0,0,8.672,17.4Zm12.639.263c.008-.167.018-.271.018-.376q0-6.375,0-12.75a1.581,1.581,0,0,0-.014-.279.869.869,0,0,0-1.276-.628.948.948,0,0,0-.47.938q.006,6.355,0,12.71c0,.117.011.234.018.385Z" transform="translate(0 17.844)" fill="#fff" stroke="rgba(0,0,0,0)" stroke-miterlimit="10" stroke-width="1"/>
        <path id="Path_3489" data-name="Path 3489" d="M-3358.789,2338.065v-4.856h7.1v.364q0,2.4,0,4.792a.91.91,0,0,1-1.235.992C-3354.878,2338.929-3356.828,2338.5-3358.789,2338.065Z" transform="translate(3385.492 -2320.721)" fill="#fff"/>
        <path id="Path_3490" data-name="Path 3490" d="M-3358.687,2243.886h4.929c.413,0,.825-.006,1.238,0a.851.851,0,0,1,.912.859c.022,1.476.008,2.951.008,4.454h-7.086Z" transform="translate(3385.397 -2238.538)" fill="#fff"/>
        <path id="Path_3491" data-name="Path 3491" d="M-3598.677,2333.305v5.236c-1.455.323-2.9.657-4.351.96a.869.869,0,0,1-.986-.857c-.014-1.77-.005-3.541-.005-5.339Z" transform="translate(3611.12 -2320.81)" fill="#fff"/>
        <path id="Path_3492" data-name="Path 3492" d="M-3509.364,2249.551h-5.3v-5.3h5.3Z" transform="translate(3528.91 -2238.877)" fill="#fff"/>
        <path id="Path_3493" data-name="Path 3493" d="M-3598.672,2243.963v5.3h-5.312a1,1,0,0,1-.029-.175c0-1.383-.006-2.767,0-4.15,0-.558.308-.959.8-.967C-3601.712,2243.949-3600.211,2243.963-3598.672,2243.963Z" transform="translate(3611.115 -2238.606)" fill="#fff"/>
        <path id="Path_3494" data-name="Path 3494" d="M-3514.832,2333.153h5.321v3.667l-5.321,1.184Z" transform="translate(3529.06 -2320.67)" fill="#fff"/>
        <path id="Path_3495" data-name="Path 3495" d="M-3422.163,2249.53h-3.538v-5.288h3.538Z" transform="translate(3447.055 -2238.867)" fill="#fff"/>
        <path id="Path_3496" data-name="Path 3496" d="M-3425.841,2333.162h3.547v4.454l-3.547-.788Z" transform="translate(3447.183 -2320.678)" fill="#fff"/>
    </g>
</svg>
