<svg id="Group_1869" data-name="Group 1869" xmlns="http://www.w3.org/2000/svg" width="49.17" height="28.804" viewBox="0 0 49.17 28.804">
    <g id="Group_1832" data-name="Group 1832" transform="translate(12.334 0)">
        <path id="Path_3426" data-name="Path 3426" d="M1290.5,110.407a7.179,7.179,0,1,1-7.212,7.106A7.095,7.095,0,0,1,1290.5,110.407Zm.053,12.4a5.229,5.229,0,1,0-5.308-5.15A5.328,5.328,0,0,0,1290.549,122.811Z" transform="translate(-1278.25 -110.407)" fill="#fff"/>
        <path id="Path_3427" data-name="Path 3427" d="M1294,167.455h-1.864c-2.02-7.26-5.018-10.166-10.43-10.165-5.428,0-8.394,2.873-10.432,10.164h-1.782a11.162,11.162,0,0,1,4.78-9.8,12.3,12.3,0,0,1,19.727,9.8Z" transform="translate(-1269.484 -138.758)" fill="#fff"/>
    </g>
    <path id="Path_3428" data-name="Path 3428" d="M1257.93,127.646a6.183,6.183,0,1,1-6.182-6.095A6.183,6.183,0,0,1,1257.93,127.646Zm-6.046-3.828a3.916,3.916,0,1,0,3.8,4.1A4.022,4.022,0,0,0,1251.884,123.818Z" transform="translate(-1241.955 -117.486)" fill="#fff"/>
    <path id="Path_3429" data-name="Path 3429" d="M1338.888,127.738a6.183,6.183,0,1,1-6.279-6.188A6.207,6.207,0,0,1,1338.888,127.738Zm-2.261-.06a3.936,3.936,0,1,0-3.915,3.97A4.012,4.012,0,0,0,1336.627,127.678Z" transform="translate(-1293.385 -117.486)" fill="#fff"/>
    <path id="Path_3430" data-name="Path 3430" d="M1331.406,159.263a9.514,9.514,0,0,1,9.841.627c3.305,2.211,4.7,5.409,4.362,9.521l-1.971.155c-.043-.546-.1-1.008-.112-1.471a7.722,7.722,0,0,0-9.583-7.525C1332.427,160.9,1332.427,160.9,1331.406,159.263Z" transform="translate(-1296.487 -140.761)" fill="#fff"/>
    <path id="Path_3431" data-name="Path 3431" d="M1237.748,169.555H1235.9a9.177,9.177,0,0,1,3.643-9.29,9.387,9.387,0,0,1,10.272-.753,1.835,1.835,0,0,1-2.5,1.193,7.616,7.616,0,0,0-9.564,7.466C1237.74,168.585,1237.748,169,1237.748,169.555Z" transform="translate(-1235.668 -140.845)" fill="#fff"/>
</svg>
