<svg xmlns="http://www.w3.org/2000/svg" width="44.057" height="28.601" viewBox="0 0 44.057 28.601">
    <g id="Group_1873" data-name="Group 1873" transform="translate(0 0)">
        <path id="Path_3464" data-name="Path 3464" d="M1051.318,1668.027c2.4.441,4.763.87,7.12,1.306q4.11.759,8.218,1.526,3.693.684,7.388,1.363c1.036.191,2.073.379,3.108.577a.9.9,0,0,1,.763.944q0,8.566,0,17.132a.914.914,0,0,1-.845.989q-3.6.656-7.193,1.318-4.873.9-9.743,1.811-4.359.812-8.717,1.626a.638.638,0,0,1-.1,0Zm4.8,14.3q0,4.854,0,9.707a.68.68,0,1,0,1.346-.012q0-1.9,0-3.791,0-7.712,0-15.424c0-.1.005-.208,0-.311a.669.669,0,0,0-.484-.627c-.477-.141-.86.193-.86.754Q1056.119,1677.476,1056.121,1682.328Zm4.371-.03q0,4.587,0,9.173a1.44,1.44,0,0,0,.04.391.655.655,0,0,0,.881.416.718.718,0,0,0,.422-.757q0-7.97,0-15.941,0-1.274-.005-2.548a.662.662,0,0,0-.671-.716.672.672,0,0,0-.667.723q0,.156,0,.312Q1060.491,1677.825,1060.491,1682.3Zm5.71.037q0-4.175,0-8.35a3.383,3.383,0,0,0-.006-.339.658.658,0,0,0-.615-.594c-.436-.03-.723.3-.723.81q0,6.92-.006,13.841,0,1.585.009,3.169a.674.674,0,1,0,1.34-.045Q1066.2,1686.581,1066.2,1682.336Zm4.364-3.9h0q0-2.039,0-4.077a1.133,1.133,0,0,0-.053-.387.657.657,0,0,0-.759-.4.684.684,0,0,0-.513.746q-.02,5.037-.035,10.073c0,.884.027,1.769.032,2.654.006,1.095,0,2.19,0,3.284a.669.669,0,0,0,.67.745.661.661,0,0,0,.655-.729c.013-1.472.031-2.944.031-4.416,0-1.225-.024-2.45-.029-3.675C1070.561,1680.988,1070.565,1679.714,1070.565,1678.439Zm3.041,3.855q0,3.735,0,7.47c0,.495.267.806.673.8s.654-.306.655-.817q0-.961,0-1.923,0-6.423,0-12.846a2.485,2.485,0,0,0-.012-.339.612.612,0,0,0-.477-.535.569.569,0,0,0-.675.225,1.1,1.1,0,0,0-.158.549C1073.6,1677.352,1073.607,1679.823,1073.606,1682.294Z" transform="translate(-1033.859 -1668.027)" fill="#fff"/>
        <path id="Path_3465" data-name="Path 3465" d="M884.776,1694.636c0-2.473,0-4.9,0-7.322q0-6.766-.005-13.532c0-1.076,0-2.151,0-3.227,0-.178.043-.254.233-.3q3.889-1.02,7.773-2.06a.452.452,0,0,1,.1,0v28.59Z" transform="translate(-876.742 -1668.179)" fill="#fff"/>
        <path id="Path_3466" data-name="Path 3466" d="M749.738,1735.742l-4.3-1.143c-.545-.145-1.091-.286-1.636-.432a.905.905,0,0,1-.73-.942q0-6.736,0-13.473,0-2.547,0-5.094a.892.892,0,0,1,.675-.927c1.989-.53,3.98-1.054,5.992-1.586Z" transform="translate(-743.071 -1709.647)" fill="#fff"/>
    </g>
</svg>
