<svg xmlns="http://www.w3.org/2000/svg" width="37.763" height="35.011" viewBox="0 0 37.763 35.011">
    <g id="Group_1876" data-name="Group 1876" transform="translate(0 0)">
        <path id="Path_3497" data-name="Path 3497" d="M-2192.785,2229.793a9.719,9.719,0,0,1,7.118-5.532,9.413,9.413,0,0,1,8.447,2.416,9.332,9.332,0,0,1,3.168,7.648,9.443,9.443,0,0,1-5.073,8.177,9.546,9.546,0,0,1-7.841.736c-.328-.1-.434-.239-.388-.6a12.961,12.961,0,0,0-5.144-12.59c-.059-.047-.12-.091-.177-.139C-2192.7,2229.89-2192.725,2229.86-2192.785,2229.793Zm9.554,9.646c.087-.947.087-.946.982-1.144.11-.024.22-.052.327-.087a2.589,2.589,0,0,0,1.973-2.513,2.458,2.458,0,0,0-1.6-2.475,7.83,7.83,0,0,0-1-.354c-.772-.231-1.56-.415-2.315-.691a.837.837,0,0,1-.432-.628c-.008-.225.219-.639.377-.656a6.386,6.386,0,0,1,1.988.019c.3.064.505.561.8.925h2.161a10.309,10.309,0,0,0-.76-1.654,2.93,2.93,0,0,0-2.348-1.073c-.031-.274-.056-.494-.083-.726h-1.254c-.024.271-.046.506-.054.6a16.514,16.514,0,0,0-1.869.691,2.374,2.374,0,0,0-.511,3.885,6.2,6.2,0,0,0,1.9.9c.7.255,1.446.386,2.156.622a.757.757,0,0,1,.531.837.69.69,0,0,1-.686.69,13.047,13.047,0,0,1-1.617.031c-.46-.02-.686-.338-.771-.767-.032-.162-.066-.324-.1-.487h-2.45a10.451,10.451,0,0,0,.71,1.764,3.375,3.375,0,0,0,2.732,1.3v.978Z" transform="translate(2211.802 -2217.002)" fill="#fff"/>
        <path id="Path_3498" data-name="Path 3498" d="M-2349.49,2292.873a11.365,11.365,0,0,1-11.386-11.352,11.459,11.459,0,0,1,11.343-11.38,11.372,11.372,0,0,1,11.377,11.365A11.3,11.3,0,0,1-2349.49,2292.873Zm-.039-19.935a8.586,8.586,0,0,0-8.56,8.56,8.54,8.54,0,0,0,8.9,8.621,8.568,8.568,0,0,0,8.286-8.616A8.587,8.587,0,0,0-2349.529,2272.938Z" transform="translate(2360.877 -2257.862)" fill="#fff"/>
        <path id="Path_3499" data-name="Path 3499" d="M-2316.949,2173.479a9.2,9.2,0,0,1,4.865-10.975,9.04,9.04,0,0,1,8.142.123,8.89,8.89,0,0,1,4.414,4.982.538.538,0,0,1-.163.481c-.4.279-.833.5-1.313.783a7.434,7.434,0,0,0-4.857-5.075,7.028,7.028,0,0,0-5.235.248,7.443,7.443,0,0,0-4.211,8.7Z" transform="translate(2322.292 -2161.596)" fill="#fff"/>
        <path id="Path_3500" data-name="Path 3500" d="M-2263.954,2197.763c.069-.739.069-.739,1.213-.648.021.223.044.456.071.724a2.558,2.558,0,0,1,2.147.926,11.019,11.019,0,0,1,.8,1.612c-.773,0-1.35.017-1.924-.014a.466.466,0,0,1-.328-.292.818.818,0,0,0-.786-.692,4.96,4.96,0,0,0-1.44.062.817.817,0,0,0-.5.6.874.874,0,0,0,.439.668c.492.215,1.048.278,1.559.456a12.066,12.066,0,0,1,1.971.792,2.118,2.118,0,0,1,.649,2.935c-.522-.219-1.053-.439-1.581-.665-.065-.028-.158-.079-.168-.133-.165-.845-.9-.846-1.51-1.033-.733-.225-1.486-.4-2.2-.682a1.958,1.958,0,0,1-1.322-1.972,2.261,2.261,0,0,1,1.363-2.161A12.574,12.574,0,0,1-2263.954,2197.763Z" transform="translate(2277.501 -2193.061)" fill="#fff"/>
        <path id="Path_3501" data-name="Path 3501" d="M-2292.439,2330.028v.941h-1.341v-.992a3.42,3.42,0,0,1-2.764-1.468,8.345,8.345,0,0,1-.678-1.781h2.277c.357.483.563,1,.94,1.219a2.327,2.327,0,0,0,2.177-.034.909.909,0,0,0,.432-.747,1.226,1.226,0,0,0-.617-.78c-.559-.244-1.194-.309-1.774-.513a11.376,11.376,0,0,1-2.267-.937,2.138,2.138,0,0,1-.879-2.344,2.7,2.7,0,0,1,1.9-2.111,11.238,11.238,0,0,1,1.355-.293v-.813h1.339c.026.288.049.545.071.8,2.226.493,3.065,1.285,2.974,2.875-.662,0-1.332.011-2-.014-.084,0-.171-.192-.239-.306-.112-.188-.164-.436-.319-.568a2.711,2.711,0,0,0-2.431-.062.855.855,0,0,0-.3.669,1.006,1.006,0,0,0,.511.646c.606.24,1.261.357,1.883.564a12.654,12.654,0,0,1,1.88.721,2.421,2.421,0,0,1,1.271,2.611,2.6,2.6,0,0,1-1.816,2.3A15.965,15.965,0,0,1-2292.439,2330.028Z" transform="translate(2304.423 -2301.526)" fill="#fff"/>
    </g>
</svg>
