<svg id="Group_1872" data-name="Group 1872" xmlns="http://www.w3.org/2000/svg" width="34.854" height="39.336" viewBox="0 0 34.854 39.336">
    <path id="Path_3461" data-name="Path 3461" d="M-3418.556,140.291h2.662c0,.378.016.747,0,1.113-.016.277.049.411.355.471a4.241,4.241,0,0,1,2.589,1.474c.267.331.476.71.725,1.089l-2.278,1.057a3.5,3.5,0,0,0-3.59-1.28,2.986,2.986,0,0,0-1.253.476.874.874,0,0,0,.139,1.579,7.426,7.426,0,0,0,1.713.423,15.407,15.407,0,0,1,3.637.814c2.643,1.11,2.513,4.85.567,6.186a5.543,5.543,0,0,1-2.594,1.019v1.707h-2.664v-1.63a5.761,5.761,0,0,1-3.51-1.62,5.1,5.1,0,0,1-1.037-1.651l2.457-1.043a2.857,2.857,0,0,0,2.146,1.706,4.318,4.318,0,0,0,2.94-.209,1.682,1.682,0,0,0,.65-.531,1.047,1.047,0,0,0-.562-1.677,12.713,12.713,0,0,0-2.227-.521,8.637,8.637,0,0,1-3.333-.906,3.1,3.1,0,0,1-1.454-3.008c.078-1.967,1.642-3.107,3.53-3.458.306-.057.427-.151.4-.469C-3418.577,141.048-3418.556,140.688-3418.556,140.291Z" transform="translate(3434.903 -126.447)" fill="#fff"/>
    <g id="Group_1858" data-name="Group 1858" transform="translate(0 0)">
        <g id="Group_1855" data-name="Group 1855" transform="translate(0 4.48)">
            <path id="Path_3462" data-name="Path 3462" d="M-3458.98,132.857a17.447,17.447,0,0,1-17.428-17.427A17.447,17.447,0,0,1-3458.98,98h.1a15.952,15.952,0,0,1,4.626.628A1.107,1.107,0,0,1-3453.5,100a1.107,1.107,0,0,1-1.372.755,13.774,13.774,0,0,0-3.993-.54h-.115a15.23,15.23,0,0,0-15.213,15.213,15.23,15.23,0,0,0,15.213,15.213,15.23,15.23,0,0,0,15.213-15.213c0-6.223-5-11.238-6.343-12.241a1.108,1.108,0,0,1-.223-1.55,1.108,1.108,0,0,1,1.55-.223c1.875,1.4,7.229,6.99,7.229,14.013A17.447,17.447,0,0,1-3458.98,132.857Z" transform="translate(3476.408 -98.001)" fill="#fff"/>
        </g>
        <g id="Group_1857" data-name="Group 1857" transform="translate(15.565)">
            <g id="Group_1856" data-name="Group 1856">
                <path id="Path_3463" data-name="Path 3463" d="M-3405.42,88.567l-.693-1.161,5.724-3.4-3.814-5.46,1.109-.773,4.644,6.651Z" transform="translate(3406.113 -77.767)" fill="#fff"/>
            </g>
        </g>
    </g>
</svg>
