<svg id="Group_1874" data-name="Group 1874" xmlns="http://www.w3.org/2000/svg" width="44.057" height="31.434" viewBox="0 0 44.057 31.434">
    <g id="Group_1861" data-name="Group 1861" transform="translate(12.379 14.008)">
        <path id="Path_3467" data-name="Path 3467" d="M-3249.269-193.025c-.063.14-.118.284-.184.424a6.473,6.473,0,0,0-.5,1.293h9.455c-.255-.62-.481-1.218-.747-1.8a.808.808,0,0,0-.792-.469c-.527,0-1.055,0-1.582,0-.148,0-.213-.033-.2-.192s0-.325,0-.488c0-.713.01-1.427,0-2.14,0-.186.012-.428-.267-.455a9.661,9.661,0,0,0-1.667,0c-.046,0-.152-.012-.153.1,0,.154-.065.3-.063.455.01.837,0,1.675.005,2.512,0,.161-.043.211-.208.21-.752-.009-1.5-.006-2.257,0A.86.86,0,0,0-3249.269-193.025Z" transform="translate(3260.357 200.186)" fill="#fff"/>
        <path id="Path_3468" data-name="Path 3468" d="M-3298.167-194.768q1.129-.007,2.257,0a.3.3,0,0,0,.345-.294c.009-.181.1-.17.221-.17.831,0,1.661,0,2.491,0s1.676,0,2.514,0c.175,0,.252-.034.241-.226a6.9,6.9,0,0,1,0-.791c.01-.2-.06-.243-.25-.242-1.638.008-3.274,0-4.912.007-.133,0-.246.006-.311-.149a.289.289,0,0,0-.271-.184c-.807,0-1.614,0-2.42,0-.149,0-.25.07-.25.235,0,.5-.005.992,0,1.488A.3.3,0,0,0-3298.167-194.768Z" transform="translate(3303.008 200.123)" fill="#fff"/>
        <path id="Path_3469" data-name="Path 3469" d="M-3328.126-145.8c.621,0,1.241,0,1.862,0,.6,0,1.194,0,1.792,0a1.391,1.391,0,0,0,.975-.421.188.188,0,0,0,.051-.243,2.39,2.39,0,0,0-1.991-1.665,2.36,2.36,0,0,0-2.168.692,2.593,2.593,0,0,0-.7,1.462C-3328.333-145.814-3328.254-145.8-3328.126-145.8Z" transform="translate(3329.173 157.403)" fill="#fff"/>
        <path id="Path_3470" data-name="Path 3470" d="M-3303.714-219.464a.606.606,0,0,0-.588-.436c-.722,0-1.444-.006-2.165,0-.145,0-.167-.041-.185-.178-.04-.3-.009-.6-.055-.9-.025-.158.017-.179.155-.177q.815.01,1.63,0a.565.565,0,0,0,.6-.565.578.578,0,0,0-.611-.568c-.52.014-1.04,0-1.56,0-.32,0-.329,0-.338-.325-.008-.294-.016-.587-.047-.88a.561.561,0,0,0-.551-.515.567.567,0,0,0-.56.524c-.019.344-.048.689-.056,1.033,0,.137-.046.166-.175.165-.6-.006-1.2,0-1.793,0a.6.6,0,0,0-.591.52.62.62,0,0,0,.593.616c.573-.029,1.148,0,1.722-.011.124,0,.177.033.146.154-.077.3-.016.611-.079.918-.035.173-.088.184-.227.183-.675-.005-1.351,0-2.026,0a.556.556,0,0,0-.484.176.565.565,0,0,0-.1.651.5.5,0,0,0,.5.322c.706-.006,1.412,0,2.118-.005.118,0,.166.02.156.151-.058.8-.112,1.593-.158,2.391-.008.148-.056.19-.2.187-.535-.01-1.071-.012-1.607,0a2.789,2.789,0,0,0-1.3.311,13.479,13.479,0,0,0-1.419,1.028,10.181,10.181,0,0,1-.915.669,3.114,3.114,0,0,1-1.588.379c-2.173-.005-4.345,0-6.518,0a.145.145,0,0,0-.146.027.471.471,0,0,0-.324-.007.079.079,0,0,0-.1,0,.758.758,0,0,0-.135-.025c-.985,0-1.972-.027-2.956.006a2.734,2.734,0,0,0-2.041.88c-.284.317-.6.6-.9.909a3,3,0,0,1-2.289.941c-1.358-.011-2.715,0-4.073,0a.378.378,0,0,0-.418.458.136.136,0,0,0,.007.046c.2.341.346.723.571,1.04s.39.637.614.938c.26.35.429.761.684,1.119a1.737,1.737,0,0,0,1.551.742c3.259-.015,6.518-.01,9.777-.01q5.063,0,10.125,0a3.246,3.246,0,0,0,1.693-.457,3.106,3.106,0,0,0,.991-.864c.283-.408.53-.841.793-1.264.4-.639.791-1.279,1.191-1.916q1.284-2.046,2.574-4.09a.526.526,0,0,0,.031-.6.53.53,0,0,0-.5-.256c-.318,0-.636-.007-.954,0-.133,0-.171-.024-.19-.171-.039-.3-.019-.6-.043-.9a13.285,13.285,0,0,1-.08-1.657.091.091,0,0,1,.059-.02.091.091,0,0,0-.059.02l.12,0c.7,0,1.4,0,2.094,0a.637.637,0,0,0,.293-.053A.6.6,0,0,0-3303.714-219.464Zm-19.071,6.743h0a.181.181,0,0,0,.057-.018A.181.181,0,0,1-3322.785-212.721Zm-1.263.959a.409.409,0,0,1-.071-.094A.409.409,0,0,0-3324.048-211.762Zm.6-.522c-.042,0-.044-.043-.051-.095C-3323.49-212.327-3323.489-212.28-3323.446-212.283Zm-.059-.133a.112.112,0,0,0-.041-.065h0A.112.112,0,0,1-3323.506-212.417Zm-.083.134a.155.155,0,0,1-.014-.073A.155.155,0,0,0-3323.588-212.282Zm.028.257.052.02-.052-.02a.365.365,0,0,1-.092-.056A.365.365,0,0,0-3323.56-212.025Zm-.008-.223a.393.393,0,0,0,.062.067A.393.393,0,0,1-3323.568-212.248Zm.172-.4a.081.081,0,0,0-.071-.034A.081.081,0,0,1-3323.4-212.648Zm-.225.024a.285.285,0,0,0-.151.267.412.412,0,0,0,.055.2.412.412,0,0,1-.055-.2A.284.284,0,0,1-3323.621-212.624Zm-.165.926a.385.385,0,0,1,.068.065.394.394,0,0,0-.068-.065l-.048-.041Zm-.192-.42c.018-.05-.014-.076-.057-.067C-3323.992-212.195-3323.96-212.168-3323.978-212.119Zm-.59.135a.811.811,0,0,0,.087.081.811.811,0,0,1-.087-.081.12.12,0,0,0-.026-.023A.12.12,0,0,1-3324.568-211.984Zm-.118-.007a.063.063,0,0,1,.062-.028.063.063,0,0,0-.062.028.072.072,0,0,0-.013.027A.072.072,0,0,1-3324.686-211.991Zm-.009,2.78a1.247,1.247,0,0,1-1.276-1.015,1.25,1.25,0,0,1,1.509-1.452l.2.054h0a1.294,1.294,0,0,1,.762,1.248A1.261,1.261,0,0,1-3324.695-209.211Zm1.52-2.86a.253.253,0,0,1-.182.091.253.253,0,0,0,.182-.091c.047-.052.141-.1.182-.159C-3323.033-212.174-3323.128-212.124-3323.175-212.072Zm.038-.271a.121.121,0,0,1,.066-.038A.121.121,0,0,0-3323.137-212.343Zm.012-.372a.39.39,0,0,0,.194.142A.39.39,0,0,1-3323.125-212.715Zm.434.148c.059-.015.106-.043.1-.117s-.024-.08-.049-.083c.025,0,.044.023.049.083S-3322.632-212.582-3322.691-212.567Zm.152-.268a.809.809,0,0,1-.132-.133.279.279,0,0,0-.031-.029.416.416,0,0,0-.067-.045.416.416,0,0,1,.067.045.279.279,0,0,1,.031.029.809.809,0,0,0,.132.133.1.1,0,0,0,.034.013A.1.1,0,0,1-3322.54-212.835Zm.1-.019a.1.1,0,0,1-.035.027.1.1,0,0,0,.035-.027.1.1,0,0,0,.022-.039A.1.1,0,0,1-3322.436-212.854Zm1.537,3.645a1.242,1.242,0,0,1-1.223-1.253,1.245,1.245,0,0,1,1.236-1.242,1.246,1.246,0,0,1,1.251,1.252A1.248,1.248,0,0,1-3320.9-209.209Zm3.888.006a1.279,1.279,0,0,1-1.255-1.262,1.272,1.272,0,0,1,1.226-1.241,1.242,1.242,0,0,1,1.267,1.259A1.254,1.254,0,0,1-3317.011-209.2Zm3.849,0a1.26,1.26,0,0,1-1.231-1.254,1.254,1.254,0,0,1,1.242-1.242,1.236,1.236,0,0,1,1.246,1.254A1.234,1.234,0,0,1-3313.161-209.207Z" transform="translate(3335.38 224)" fill="#fff"/>
    </g>
    <path id="Path_3471" data-name="Path 3471" d="M-3383.686-339a8.4,8.4,0,0,1,1.013.637,2.317,2.317,0,0,1,.823,1.886c-.009,1.051,0,2.1,0,3.256.881,0,1.7-.015,2.527,0a1.515,1.515,0,0,1,1.613,1.341,1.526,1.526,0,0,1-1.655,1.729c-1.664.018-3.328.005-4.991.005q-4.018,0-8.036,0a1.574,1.574,0,0,1-1.781-1.369,1.526,1.526,0,0,1,1.56-1.7c.425-.021.852-.01,1.279-.012.4,0,.807,0,1.307,0,0-.856.06-1.665-.013-2.463a2.9,2.9,0,0,1,1.85-3.31Zm-.64,3a1.627,1.627,0,0,0-1.638-1.607,1.628,1.628,0,0,0-1.594,1.591,1.63,1.63,0,0,0,1.607,1.639A1.639,1.639,0,0,0-3384.326-336Z" transform="translate(3399.399 339)" fill="#fff"/>
    <path id="Path_3472" data-name="Path 3472" d="M-3437-321.758c.071-.165.145-.329.213-.5a3.3,3.3,0,0,1,3-2.215c.868-.058,1.744-.017,2.616-.014.449,0,.758.2.759.68s-.316.682-.757.688c-.73.012-1.461,0-2.191,0a2.079,2.079,0,0,0-2.279,2.26q-.008,5.752,0,11.5,0,5.3,0,10.59a2.134,2.134,0,0,0,2.434,2.42q3.652.005,7.3.005h.707v1.357h-.67c-2.293,0-4.588-.057-6.877.024-2.136.075-3.606-.712-4.262-2.81Z" transform="translate(3437 326.265)" fill="#fff"/>
    <path id="Path_3473" data-name="Path 3473" d="M-3384.74-240.894a2.948,2.948,0,0,0-1.344,1.983c-.318,1.044-.385,1.08-1.49,1.079-1.622,0-3.244.006-4.865,0-1.079-.005-1.743-.59-1.748-1.514a1.536,1.536,0,0,1,1.726-1.544C-3389.888-240.9-3387.314-240.894-3384.74-240.894Z" transform="translate(3399.402 252.846)" fill="#fff"/>
    <path id="Path_3474" data-name="Path 3474" d="M-3263.441-312.21h-1.3v-.669q0-3.895,0-7.789a2.113,2.113,0,0,0-2.391-2.394q-.974,0-1.948,0c-.487,0-.87-.159-.865-.7,0-.513.37-.671.834-.669.832,0,1.665-.032,2.494.009a3.334,3.334,0,0,1,3.226,3.265c.042,2.92.006,5.842,0,8.763A.923.923,0,0,1-3263.441-312.21Z" transform="translate(3290.289 326.216)" fill="#fff"/>
</svg>
