<svg xmlns="http://www.w3.org/2000/svg" width="32" height="29.007" viewBox="0 0 32 29.007">
    <g id="Group_1877" data-name="Group 1877" transform="translate(-478.884 -100.38)">
        <path id="Path_3406" data-name="Path 3406" d="M497.807,123.627v2.9h2.832v2.862h-11.51v-2.807h2.807v-2.91c-.269-.014-.542-.042-.815-.042q-4.46,0-8.921,0c-2.174,0-3.309-1.117-3.312-3.289q-.012-8.339,0-16.678c0-2.18,1.118-3.278,3.307-3.278q12.683,0,25.365,0c2.212,0,3.317,1.111,3.319,3.347q.007,8.261,0,16.522c0,2.277-1.108,3.374-3.382,3.375q-4.383,0-8.765,0Zm10.119-2.924V103.3h-26.09v17.4Z" fill="#fff"/>
        <path id="Path_3408" data-name="Path 3408" d="M516.632,145.337V138.2h12.973v7.139Z" transform="translate(-31.891 -31.95)" fill="#fff"/>
        <path id="Path_3409" data-name="Path 3409" d="M610.542,173.509V166.39h5.69v7.119Z" transform="translate(-111.229 -55.767)" fill="#fff"/>
        <path id="Path_3410" data-name="Path 3410" d="M610.7,138.015h5.665v2.822H610.7Z" transform="translate(-111.361 -31.795)" fill="#fff"/>
        <path id="Path_3411" data-name="Path 3411" d="M522.41,194.591v2.758h-5.689v-2.758Z" transform="translate(-31.966 -79.592)" fill="#fff"/>
        <path id="Path_3412" data-name="Path 3412" d="M563.712,194.456h5.662v2.772h-5.662Z" transform="translate(-71.665 -79.478)" fill="#fff"/>
    </g>
</svg>
