<svg xmlns="http://www.w3.org/2000/svg" width="47.779" height="27.309" viewBox="0 0 47.779 27.309">
    <g id="Group_1871" data-name="Group 1871" transform="translate(0.5 0.49)">
        <g id="Group_1846" data-name="Group 1846" transform="translate(9.465 0)">
            <path id="Path_3453" data-name="Path 3453" d="M-3905.544,129.339a4.664,4.664,0,0,1-4.367-3.115c-.184-.535-.354-.609-.805-.57a15.367,15.367,0,0,1-2.038.006,2.51,2.51,0,0,1-2.61-2.725c-.006-1.645-.042-17.067,0-17.644a2.455,2.455,0,0,1,2.426-2.249c6.529-.014,12.564-.013,18.45,0a2.392,2.392,0,0,1,2.468,2.656c.014,3.594.011,7.248.009,10.782q0,2.187,0,4.375c0,.256,0,.512.005.767,0,.46.009.935,0,1.405a2.466,2.466,0,0,1-2.734,2.658h-.557c-1.664,0-3.385,0-5.079-.031-.443-.008-.571.037-.705.469a4.63,4.63,0,0,1-4.376,3.212Zm-5.018-4.385a1.274,1.274,0,0,1,1.306,1.044,4.015,4.015,0,0,0,3.787,2.646,3.939,3.939,0,0,0,3.728-2.724,1.212,1.212,0,0,1,1.38-.957c1.687.031,3.4.031,5.066.031h.557a1.776,1.776,0,0,0,2.042-1.98c.01-.459.005-.929,0-1.383,0-.258,0-.516,0-.774q0-2.188,0-4.375c0-3.533,0-7.186-.01-10.779,0-1.246-.652-1.962-1.776-1.965-5.885-.017-11.918-.018-18.447,0a1.758,1.758,0,0,0-1.736,1.611h0c-.04.49-.013,14.249,0,17.586a1.84,1.84,0,0,0,1.951,2.035,14.643,14.643,0,0,0,1.944,0C-3910.7,124.957-3910.631,124.954-3910.562,124.954Zm5.07,3-.123,0a3.4,3.4,0,0,1-3.216-3.432,3.28,3.28,0,0,1,3.4-3.193h0a3.27,3.27,0,0,1,2.323,1.027,3.351,3.351,0,0,1,.894,2.445,3.293,3.293,0,0,1-1.093,2.258A3.28,3.28,0,0,1-3905.493,127.95Zm-.027-5.936a2.564,2.564,0,0,0-2.619,2.524,2.73,2.73,0,0,0,2.554,2.716,2.561,2.561,0,0,0,1.813-.713,2.593,2.593,0,0,0,.869-1.774,2.666,2.666,0,0,0-.706-1.945,2.583,2.583,0,0,0-1.835-.808h-.075Z" transform="translate(3915.384 -103.031)" fill="#fff" stroke="#fff" stroke-width="1"/>
        </g>
        <g id="Group_1847" data-name="Group 1847" transform="translate(33.716 3.648)">
            <path id="Path_3454" data-name="Path 3454" d="M-3770.691,146.753a4.058,4.058,0,0,1-.693-.059,4.659,4.659,0,0,1-4.06-4.611c-.01-4.4-.009-8.87-.008-13.2v-3.766c0-.142.01-.279.022-.438.006-.08.013-.167.019-.264a.347.347,0,0,1,.346-.325c.545,0,1.08,0,1.608-.006,1.241-.007,2.413-.014,3.6.018a3.842,3.842,0,0,1,2.945,1.691c1.154,1.458,2.324,3.025,3.477,4.656a5.8,5.8,0,0,1,1.039,3.548c-.03,1.465-.02,2.958-.009,4.4q.006.824.009,1.647a3.068,3.068,0,0,1-.785,2.293,2.9,2.9,0,0,1-2.2.714c-.625-.015-.82.064-1.015.654A4.62,4.62,0,0,1-3770.691,146.753Zm-4.05-21.966c-.009.128-.017.232-.017.334v3.766c0,4.324,0,8.8.007,13.193a3.984,3.984,0,0,0,3.485,3.93,3.932,3.932,0,0,0,4.215-2.518,1.45,1.45,0,0,1,1.691-1.129,2.283,2.283,0,0,0,1.7-.517,2.419,2.419,0,0,0,.576-1.8q0-.822-.009-1.644c-.01-1.448-.021-2.946.01-4.42a5.124,5.124,0,0,0-.912-3.134c-1.146-1.621-2.308-3.177-3.455-4.626a3.2,3.2,0,0,0-2.42-1.428c-1.179-.031-2.346-.024-3.581-.018Q-3774.09,124.786-3774.741,124.788Zm4.005,20.565-.1,0a3.422,3.422,0,0,1-3.25-3.41,3.294,3.294,0,0,1,3.4-3.217,3.235,3.235,0,0,1,3.219,3.361h0a3.357,3.357,0,0,1-1.05,2.354A3.206,3.206,0,0,1-3770.736,145.353Zm-.033-5.936a2.6,2.6,0,0,0-2.624,2.546,2.745,2.745,0,0,0,2.58,2.7,2.539,2.539,0,0,0,1.815-.721,2.66,2.66,0,0,0,.835-1.863,2.557,2.557,0,0,0-2.542-2.657Zm2.652-5.805c-1.083,0-2.146,0-3.22-.014a1.254,1.254,0,0,1-1.279-1.369c-.017-.86-.007-1.718,0-2.517a1.229,1.229,0,0,1,1.317-1.313c1.374-.015,2.767-.006,4.068.007a.94.94,0,0,1,.744.289c.214.294.448.589.675.874a8.909,8.909,0,0,1,2.013,3.615.347.347,0,0,1-.067.293.347.347,0,0,1-.271.131l-2.027,0Zm-1.669-4.527c-.5,0-1,0-1.5.008a.554.554,0,0,0-.631.631c-.013.793-.021,1.644-.005,2.493.014.683.45.688.593.689,1.707.018,3.388.015,5.169.012l1.575,0a9.189,9.189,0,0,0-1.764-2.914c-.224-.282-.455-.573-.672-.869a.68.68,0,0,0-.21-.032C-3768.057,129.091-3768.918,129.084-3769.787,129.084Zm2.778.053Z" transform="translate(3775.452 -124.083)" fill="#fff" stroke="#fff" stroke-width="1"/>
        </g>
        <g id="Group_1848" data-name="Group 1848" transform="translate(16.276 18.55)">
            <path id="Path_3455" data-name="Path 3455" d="M-3873,216.18l-.112,0a3.136,3.136,0,0,1-2.968-3.163,3.03,3.03,0,0,1,3.139-2.942,3.014,3.014,0,0,1,2.141.945,3.1,3.1,0,0,1,.823,2.257,3.029,3.029,0,0,1-1.009,2.076A3.019,3.019,0,0,1-3873,216.18Zm-.024-5.936a2.853,2.853,0,0,0-2.883,2.775,2.959,2.959,0,0,0,2.8,2.985,2.822,2.822,0,0,0,2-.781,2.854,2.854,0,0,0,.954-1.955,2.922,2.922,0,0,0-.776-2.132,2.84,2.84,0,0,0-2.019-.89h-.078Z" transform="translate(3876.086 -210.071)" fill="#fff" stroke="#fff" stroke-width="1"/>
        </g>
        <g id="Group_1849" data-name="Group 1849" transform="translate(36.543 7.956)">
            <path id="Path_3456" data-name="Path 3456" d="M-3754.631,154.16c-1.084,0-2.147,0-3.221-.014a1.255,1.255,0,0,1-1.279-1.369c-.017-.86-.007-1.718,0-2.517a1.23,1.23,0,0,1,1.317-1.313c1.373-.015,2.767-.006,4.067.007a.942.942,0,0,1,.745.289c.214.294.448.589.675.875a8.919,8.919,0,0,1,2.012,3.615.349.349,0,0,1-.067.293.346.346,0,0,1-.271.13l-2.028,0Zm-1.67-4.527c-.5,0-1,0-1.5.008a.554.554,0,0,0-.631.631c-.013.793-.022,1.644-.005,2.493.013.683.449.688.593.689,1.706.017,3.388.014,5.169.012l1.575,0a9.2,9.2,0,0,0-1.764-2.914c-.224-.282-.455-.573-.672-.869a.686.686,0,0,0-.211-.032C-3754.571,149.639-3755.432,149.632-3756.3,149.632Z" transform="translate(3759.14 -148.939)" fill="#fff" stroke="#fff" stroke-width="1"/>
        </g>
        <g id="Group_1850" data-name="Group 1850" transform="translate(35.082 18.289)">
            <path id="Path_3457" data-name="Path 3457" d="M-3764.222,215.19l-.1,0a3.421,3.421,0,0,1-3.25-3.41,3.294,3.294,0,0,1,3.4-3.217,3.235,3.235,0,0,1,3.22,3.361h0a3.358,3.358,0,0,1-1.051,2.354A3.206,3.206,0,0,1-3764.222,215.19Zm-.034-5.936a2.6,2.6,0,0,0-2.624,2.546,2.746,2.746,0,0,0,2.581,2.7,2.536,2.536,0,0,0,1.814-.721,2.657,2.657,0,0,0,.836-1.863,2.556,2.556,0,0,0-2.542-2.657Z" transform="translate(3767.573 -208.561)" fill="#fff" stroke="#fff" stroke-width="1"/>
        </g>
        <g id="Group_1851" data-name="Group 1851" transform="translate(0 6.06)">
            <path id="Path_3458" data-name="Path 3458" d="M-3953.1,138.867h-16.464a.434.434,0,0,1-.434-.433.434.434,0,0,1,.434-.433h16.464a.433.433,0,0,1,.433.433A.433.433,0,0,1-3953.1,138.867Z" transform="translate(3970 -138)" fill="#fff" stroke="#fff" stroke-width="1"/>
        </g>
        <g id="Group_1852" data-name="Group 1852" transform="translate(2.773 9.526)">
            <path id="Path_3459" data-name="Path 3459" d="M-3936.583,158.867h-16.983a.433.433,0,0,1-.434-.433.433.433,0,0,1,.434-.433h16.983a.433.433,0,0,1,.433.433A.433.433,0,0,1-3936.583,158.867Z" transform="translate(3954 -158)" fill="#fff" stroke="#fff" stroke-width="1"/>
        </g>
        <g id="Group_1853" data-name="Group 1853" transform="translate(5.892 12.992)">
            <path id="Path_3460" data-name="Path 3460" d="M-3918.063,178.867h-17.5a.433.433,0,0,1-.434-.433.433.433,0,0,1,.434-.433h17.5a.434.434,0,0,1,.434.433A.434.434,0,0,1-3918.063,178.867Z" transform="translate(3936 -178)" fill="#fff" stroke="#fff" stroke-width="1"/>
        </g>
    </g>
</svg>
