<svg id="Group_1868" data-name="Group 1868" xmlns="http://www.w3.org/2000/svg" width="29.91" height="35.009" viewBox="0 0 29.91 35.009">
    <path id="Path_3424" data-name="Path 3424" d="M1292.082,110.407a8.758,8.758,0,1,1-8.8,8.669A8.655,8.655,0,0,1,1292.082,110.407Zm.065,15.132a6.38,6.38,0,1,0-6.476-6.283A6.5,6.5,0,0,0,1292.147,125.539Z" transform="translate(-1277.143 -110.407)" fill="#fff"/>
    <path id="Path_3425" data-name="Path 3425" d="M1299.393,170.187h-2.273c-2.464-8.857-6.122-12.4-12.725-12.4-6.623,0-10.24,3.505-12.726,12.4H1269.5a13.618,13.618,0,0,1,5.832-11.952,14.217,14.217,0,0,1,16.266-1.2C1296.638,159.783,1299.257,164.178,1299.393,170.187Z" transform="translate(-1269.483 -135.178)" fill="#fff"/>
</svg>
