<svg xmlns="http://www.w3.org/2000/svg" width="920.001" height="648.589" viewBox="0 0 920.001 648.589">
    <g id="Group_1903" data-name="Group 1903" transform="translate(-5708.527 227.808)" opacity="0.09">
        <g id="Group_1902" data-name="Group 1902" transform="translate(5708.527 -227.808)">
            <path id="Path_2" data-name="Path 2" d="M451.366,349.274c-3.553,86.265-7.144,180.345-9.521,243.974,160.542,30.3,331.446,62.356,348.537,64.776a7.074,7.074,0,0,0,.779.042c46.874,7.856,58.072-11.306,67.323-81.554,17.852-135.5,85.65-203.243,133.2-250.758s81.164-68.78,94.371-72.278,4.4-26.257-29.212-26.257c0,0-29.023-1.353-81.847,2.218-23.2,1.451-49.975,3.84-80.487,7.789A1871.9,1871.9,0,0,0,690.86,274.437c-102.252,24.379-180.387,50.9-239.494,74.838" transform="translate(-171.921 -61.73)" fill="#fff"/>
            <path id="Path_3" data-name="Path 3" d="M441.6,522.27c2.529-62.386,5.126-122.664,7.143-160.841,3.487-38.385,7.058-67.914,10.259-71.98,6.015-1.359,32.833,7.131,67.694,19.638-.311,5.491-.609,11.245-.895,17.309-1.823,38.623-2.573,95.768-2.725,157.19q11.382-4.872,23.886-9.941c2.443-58.747,4.846-112.814,6.8-149.712.147-1.609.294-3.2.438-4.785,81.883,30.425,186.209,72.644,186.4,68.707.135-2.67-99.443-51.971-184.441-88.984,3.408-33.479,6.814-57.492,9.93-61.448,24.586-5.571,338.082,125.766,338.462,118.27.268-5.346-332.277-166.321-361.932-155.3-2.707,2.914-4.961,9.99-6.827,20.229-2.547,12.4-5.309,32.8-7.692,66.263-44.427-18.547-80.427-31.285-88.624-28.237-2.249,2.419-4.126,8.307-5.681,16.827-2.845,13.878-6.028,39.763-8.307,88-1.889,39.946-2.4,103.709-2.28,168.533q8.282-4.433,18.394-9.739" transform="translate(-266.947 -199.857)" fill="#fff"/>
            <path id="Path_4" data-name="Path 4" d="M431.787,287.6c-2.639,65.64-5.143,131.965-6.777,175.9,28.786,5.443,59.326,11.219,90.423,17.09-.805-60.425-1.726-149.079-1.635-231.956-34.332,14.713-61.221,28.1-82.011,38.964" transform="translate(-257.691 48.635)" fill="#fff"/>
            <path id="Path_5" data-name="Path 5" d="M441.58,308.779l248.441,73.6H839.8L442.226,291.336c-.238,6.339-.451,12.172-.646,17.443" transform="translate(-173.278 266.207)" fill="#fff"/>
            <path id="Path_6" data-name="Path 6" d="M884.044,428.061,665.558,362.633c-.561,15.321-.878,24.124-.878,24.124l-8.271-4.133s-.152-8.313-.378-22.849L563.38,332.03c-.262,7.112-.4,11.043-.4,11.043l-6.882-3.443s-.059-3.487-.164-9.831L397.558,282.37,724.69,428.061Z" transform="translate(-397.558 220.528)" fill="#fff"/>
            <path id="Path_7" data-name="Path 7" d="M550,316.14,398.665,281.485l151.492,44.883c-.048-3.066-.1-6.485-.158-10.228" transform="translate(-391.919 216.019)" fill="#fff"/>
            <path id="Path_8" data-name="Path 8" d="M424.812,298.116l92.239,27.323c-.079-5.125-.164-10.806-.256-16.974L425.2,287.487c-.139,3.889-.274,7.442-.39,10.629" transform="translate(-258.707 246.598)" fill="#fff"/>
            <path id="Path_9" data-name="Path 9" d="M418.367,382.769a47.972,47.972,0,0,1-2.644,15.73c31.168,5.906,73.033,13.842,120.1,22.746-.572-41.152-1.285-102.674-1.475-164.675-6.241,3.34-11.727,6.3-16.5,8.795-41.244,21.569-92.281,61.6-116.453,80.78a47.886,47.886,0,0,1,16.98,36.623" transform="translate(-378.048 89.083)" fill="#fff"/>
        </g>
    </g>
</svg>
