<svg xmlns="http://www.w3.org/2000/svg" width="218.232" height="21.524" viewBox="0 0 218.232 21.524">
    <path id="Path_1" data-name="Path 1" d="M-1897.9,4946.031a1.226,1.226,0,0,1,1.575-.041.911.911,0,0,1,.287.709,1.089,1.089,0,0,1-.3.77,5.072,5.072,0,0,1-.932.73,7.579,7.579,0,0,1-.731-.8.98.98,0,0,1-.2-.6,1.041,1.041,0,0,1,.305-.769m.2,9.393a2.274,2.274,0,0,1-.688-.429,1.75,1.75,0,0,1-.429-.6,1.669,1.669,0,0,1-.143-.66,1.5,1.5,0,0,1,.3-.9,4.217,4.217,0,0,1,.83-.821l2.857,3.04a3.269,3.269,0,0,1-1.8.547,2.388,2.388,0,0,1-.932-.172m9.722,2.5-3.1-3.241a8.768,8.768,0,0,0,.92-2.179,10.616,10.616,0,0,0,.355-2.706h-2.617a7.653,7.653,0,0,1-.152,1.576,7.3,7.3,0,0,1-.417,1.328l-2.249-2.391a6.975,6.975,0,0,0,1.575-1.612,3.487,3.487,0,0,0,.609-2.037,2.98,2.98,0,0,0-.345-1.47,3.227,3.227,0,0,0-.9-1.033,3.7,3.7,0,0,0-1.29-.607,5.767,5.767,0,0,0-1.5-.194,5.116,5.116,0,0,0-1.612.244,3.769,3.769,0,0,0-1.289.716,3.244,3.244,0,0,0-.851,1.124,3.507,3.507,0,0,0-.3,1.491,3.218,3.218,0,0,0,.3,1.408,7.93,7.93,0,0,0,1.033,1.53,8.9,8.9,0,0,0-.851.75,5.915,5.915,0,0,0-.716.871,4.107,4.107,0,0,0-.5,1,3.827,3.827,0,0,0-.182,1.206,4.2,4.2,0,0,0,.333,1.645,4.386,4.386,0,0,0,.963,1.408,4.68,4.68,0,0,0,1.553.993,5.529,5.529,0,0,0,2.1.375,6.873,6.873,0,0,0,3.911-1.216l.953,1.018Zm-69.315-16.4q-.968-.313-2.1-.6t-2.359-.5q-1.219-.219-2.476-.336t-2.447-.119q-1.087,0-2.293.089a19.418,19.418,0,0,0-2.382.328,12.391,12.391,0,0,0-2.239.669,6.812,6.812,0,0,0-1.875,1.123,5.106,5.106,0,0,0-1.289,1.673,5.308,5.308,0,0,0-.47,2.336,4.371,4.371,0,0,0,.445,2.015,5.039,5.039,0,0,0,1.221,1.532,7.974,7.974,0,0,0,1.8,1.146,17.5,17.5,0,0,0,2.18.848q1.146.361,2.372.632t2.374.5q1.146.232,2.178.461a15.5,15.5,0,0,1,1.8.506,4.1,4.1,0,0,1,1.22.641,1.073,1.073,0,0,1,.446.859,1.214,1.214,0,0,1-.222.655,2,2,0,0,1-.848.632,7,7,0,0,1-1.734.475,17.792,17.792,0,0,1-2.865.186,23.525,23.525,0,0,1-5.587-.639,18.757,18.757,0,0,1-4.65-1.771v4.88a28.5,28.5,0,0,0,4.56,1.242,29.759,29.759,0,0,0,5.624.5q1.158,0,2.447-.075a19.8,19.8,0,0,0,2.543-.312,14.066,14.066,0,0,0,2.4-.676,7.091,7.091,0,0,0,2.015-1.169,5.443,5.443,0,0,0,1.391-1.785,5.662,5.662,0,0,0,.52-2.529,4.506,4.506,0,0,0-.452-2.038,5.246,5.246,0,0,0-1.221-1.576,8.337,8.337,0,0,0-1.8-1.2,16.753,16.753,0,0,0-2.179-.9q-1.146-.387-2.379-.675t-2.381-.537q-1.155-.245-2.179-.477a18.552,18.552,0,0,1-1.8-.489,4.3,4.3,0,0,1-1.224-.595.969.969,0,0,1-.448-.781,1.041,1.041,0,0,1,.052-.3.774.774,0,0,1,.232-.326,2,2,0,0,1,.519-.314,4.171,4.171,0,0,1,.907-.287,12.529,12.529,0,0,1,1.413-.193q.841-.076,2.031-.075a19.443,19.443,0,0,1,2.9.215,25.076,25.076,0,0,1,2.618.536,22.477,22.477,0,0,1,2.157.678c.636.238,1.146.452,1.532.639v-4.728Zm25.577,19.414v-4.359h-15.234V4952.6h14.251v-4.359h-14.251v-3.377h15.025v-4.359h-20.694v20.441Zm19.04-7.854h-7.469l3.747-7.528,3.725,7.528Zm10.028,7.854-10.7-20.441h-6.16l-10.7,20.441h6.16l1.92-3.867h11.4l1.917,3.867Zm35.028-13.374a3.2,3.2,0,0,1-.2,1.2,1.721,1.721,0,0,1-.66.8,3.148,3.148,0,0,1-1.206.43,11.151,11.151,0,0,1-1.83.126h-7.975v-5.266h7.975a9.055,9.055,0,0,1,1.83.156,3.216,3.216,0,0,1,1.206.485,1.836,1.836,0,0,1,.66.839,3.394,3.394,0,0,1,.2,1.228m5.578-.089a8.555,8.555,0,0,0-.445-2.812,5.464,5.464,0,0,0-1.433-2.209,6.6,6.6,0,0,0-2.57-1.436,12.9,12.9,0,0,0-3.838-.514h-14.684v20.434h5.518v-6.454h9.169a12.238,12.238,0,0,0,3.835-.524,6.8,6.8,0,0,0,2.566-1.45,5.448,5.448,0,0,0,1.432-2.216,8.546,8.546,0,0,0,.443-2.819m24.683,3.257a7.5,7.5,0,0,1-.364,2.284,4.93,4.93,0,0,1-1.289,2.046,6.8,6.8,0,0,1-2.534,1.473,12.658,12.658,0,0,1-4.093.572,14.639,14.639,0,0,1-2.93-.26,9.07,9.07,0,0,1-2.187-.717,5.885,5.885,0,0,1-1.547-1.063,5.2,5.2,0,0,1-1-1.316,5.485,5.485,0,0,1-.53-1.48,7.726,7.726,0,0,1-.156-1.533,7.586,7.586,0,0,1,.156-1.51,5.416,5.416,0,0,1,.533-1.477,5.352,5.352,0,0,1,1-1.323,5.912,5.912,0,0,1,1.547-1.079,8.935,8.935,0,0,1,2.188-.716,14.642,14.642,0,0,1,2.93-.261,12.5,12.5,0,0,1,4.093.566,6.777,6.777,0,0,1,2.534,1.473,4.925,4.925,0,0,1,1.289,2.045,7.508,7.508,0,0,1,.364,2.284m5.578,0a10.615,10.615,0,0,0-.967-4.649,9.029,9.029,0,0,0-2.766-3.369,12.662,12.662,0,0,0-4.366-2.046,24.414,24.414,0,0,0-11.544,0,12.85,12.85,0,0,0-4.4,2.046,9.1,9.1,0,0,0-2.8,3.369,10.525,10.525,0,0,0-.982,4.649,10.427,10.427,0,0,0,.982,4.648,9.115,9.115,0,0,0,2.8,3.37,12.887,12.887,0,0,0,4.4,2.046,24.439,24.439,0,0,0,11.544,0,12.7,12.7,0,0,0,4.366-2.046,9.04,9.04,0,0,0,2.766-3.37,10.619,10.619,0,0,0,.967-4.648m19.054-3.78a2.9,2.9,0,0,1-.157,1.012,1.379,1.379,0,0,1-.543.677,2.74,2.74,0,0,1-1.032.38,9.251,9.251,0,0,1-1.617.119h-7.555v-4.385h7.555a9.066,9.066,0,0,1,1.617.119,2.677,2.677,0,0,1,1.032.38,1.376,1.376,0,0,1,.543.676,2.9,2.9,0,0,1,.157,1.011m5.214,2.292a6.417,6.417,0,0,0,.364-2.261,7.714,7.714,0,0,0-.439-2.67,4.9,4.9,0,0,0-1.413-2.045,6.733,6.733,0,0,0-2.529-1.31,13.4,13.4,0,0,0-3.786-.461h-13.836v20.437h5.521v-7.524h6.017l6.194,7.524h6.457l-6.7-8.079a9.591,9.591,0,0,0,1.719-.789,5.861,5.861,0,0,0,1.433-1.167,5.245,5.245,0,0,0,.981-1.659m25.127-4.3v-4.441h-22.865v4.441h8.673v15.992h5.521v-15.985Zm21.718-3.421q-.968-.313-2.106-.6t-2.356-.5q-1.221-.216-2.479-.335t-2.447-.119c-.716,0-1.487.03-2.292.089a19.308,19.308,0,0,0-2.381.328,12.574,12.574,0,0,0-2.239.669,6.792,6.792,0,0,0-1.873,1.123,5.06,5.06,0,0,0-1.29,1.673,5.321,5.321,0,0,0-.477,2.337,4.325,4.325,0,0,0,.447,2.015,5.01,5.01,0,0,0,1.218,1.532,7.989,7.989,0,0,0,1.8,1.146,17.726,17.726,0,0,0,2.18.848q1.154.364,2.375.632t2.371.5q1.145.232,2.18.462a16.023,16.023,0,0,1,1.8.5,4.123,4.123,0,0,1,1.219.641,1.082,1.082,0,0,1,.445.859,1.217,1.217,0,0,1-.223.655,1.955,1.955,0,0,1-.849.632,6.938,6.938,0,0,1-1.732.475,17.787,17.787,0,0,1-2.864.186,23.427,23.427,0,0,1-5.588-.638,18.814,18.814,0,0,1-4.65-1.771v4.879a28.248,28.248,0,0,0,4.56,1.242,29.774,29.774,0,0,0,5.617.5q1.16,0,2.447-.075a19.71,19.71,0,0,0,2.544-.312,13.986,13.986,0,0,0,2.4-.676,7.086,7.086,0,0,0,2.014-1.169,5.426,5.426,0,0,0,1.392-1.785,5.7,5.7,0,0,0,.519-2.529,4.5,4.5,0,0,0-.445-2.038,5.221,5.221,0,0,0-1.22-1.576,8.333,8.333,0,0,0-1.8-1.2,17.028,17.028,0,0,0-2.179-.9q-1.156-.387-2.382-.676t-2.38-.536q-1.146-.246-2.18-.477a17.835,17.835,0,0,1-1.8-.49,4.388,4.388,0,0,1-1.222-.6.956.956,0,0,1-.445-.781,1.009,1.009,0,0,1,.051-.3.781.781,0,0,1,.232-.327,2,2,0,0,1,.512-.319,4.206,4.206,0,0,1,.909-.275,12.3,12.3,0,0,1,1.411-.193c.562-.051,1.238-.075,2.033-.075a19.152,19.152,0,0,1,2.9.215,25.192,25.192,0,0,1,2.617.536q1.2.322,2.159.677t1.531.639v-4.727Z" transform="translate(1977.232 -4939.98)" fill="#fff"/>
</svg>
